<?xml version="1.0" encoding="utf-8" standalone="no"?>
<!DOCTYPE svg PUBLIC "-//W3C//DTD SVG 1.1//EN"
  "http://www.w3.org/Graphics/SVG/1.1/DTD/svg11.dtd">
<svg height="576pt" version="1.1" viewBox="0 0 1440 576" width="1440pt" xmlns="http://www.w3.org/2000/svg" xmlns:xlink="http://www.w3.org/1999/xlink">
 <metadata>
  <rdf:RDF xmlns:cc="http://creativecommons.org/ns#" xmlns:dc="http://purl.org/dc/elements/1.1/" xmlns:rdf="http://www.w3.org/1999/02/22-rdf-syntax-ns#">
   <cc:Work>
    <dc:type rdf:resource="http://purl.org/dc/dcmitype/StillImage"/>
    <dc:date>2021-07-09T09:59:47.182746</dc:date>
    <dc:format>image/svg+xml</dc:format>
    <dc:creator>
     <cc:Agent>
      <dc:title>Matplotlib v3.4.2, https://matplotlib.org/</dc:title>
     </cc:Agent>
    </dc:creator>
   </cc:Work>
  </rdf:RDF>
 </metadata>
 <defs>
  <style type="text/css">*{stroke-linecap:butt;stroke-linejoin:round;}</style>
 </defs>
 <g id="figure_1">
  <g id="patch_1">
   <path d="M 0 576 
L 1440 576 
L 1440 0 
L 0 0 
z
" style="fill:#ffffff;"/>
  </g>
  <g id="axes_1">
   <g id="patch_2">
    <path d="M 180 504 
L 1296 504 
L 1296 69.12 
L 180 69.12 
z
" style="fill:#eaeaf2;"/>
   </g>
   <g id="matplotlib.axis_1">
    <g id="xtick_1">
     <g id="line2d_1">
      <path clip-path="url(#pf8fd24a01c)" d="M 230.727273 504 
L 230.727273 69.12 
" style="fill:none;stroke:#ffffff;stroke-linecap:round;"/>
     </g>
     <g id="text_1">
      <!-- 0.10 -->
      <g style="fill:#262626;" transform="translate(220.023757 521.373594)scale(0.11 -0.11)">
       <defs>
        <path d="M 266 2259 
Q 266 3072 433 3567 
Q 600 4063 929 4331 
Q 1259 4600 1759 4600 
Q 2128 4600 2406 4451 
Q 2684 4303 2865 4023 
Q 3047 3744 3150 3342 
Q 3253 2941 3253 2259 
Q 3253 1453 3087 958 
Q 2922 463 2592 192 
Q 2263 -78 1759 -78 
Q 1097 -78 719 397 
Q 266 969 266 2259 
z
M 844 2259 
Q 844 1131 1108 757 
Q 1372 384 1759 384 
Q 2147 384 2411 759 
Q 2675 1134 2675 2259 
Q 2675 3391 2411 3762 
Q 2147 4134 1753 4134 
Q 1366 4134 1134 3806 
Q 844 3388 844 2259 
z
" id="ArialMT-30" transform="scale(0.015625)"/>
        <path d="M 581 0 
L 581 641 
L 1222 641 
L 1222 0 
L 581 0 
z
" id="ArialMT-2e" transform="scale(0.015625)"/>
        <path d="M 2384 0 
L 1822 0 
L 1822 3584 
Q 1619 3391 1289 3197 
Q 959 3003 697 2906 
L 697 3450 
Q 1169 3672 1522 3987 
Q 1875 4303 2022 4600 
L 2384 4600 
L 2384 0 
z
" id="ArialMT-31" transform="scale(0.015625)"/>
       </defs>
       <use xlink:href="#ArialMT-30"/>
       <use x="55.615234" xlink:href="#ArialMT-2e"/>
       <use x="83.398438" xlink:href="#ArialMT-31"/>
       <use x="139.013672" xlink:href="#ArialMT-30"/>
      </g>
     </g>
    </g>
    <g id="xtick_2">
     <g id="line2d_2">
      <path clip-path="url(#pf8fd24a01c)" d="M 357.545455 504 
L 357.545455 69.12 
" style="fill:none;stroke:#ffffff;stroke-linecap:round;"/>
     </g>
     <g id="text_2">
      <!-- 0.15 -->
      <g style="fill:#262626;" transform="translate(346.841939 521.373594)scale(0.11 -0.11)">
       <defs>
        <path d="M 266 1200 
L 856 1250 
Q 922 819 1161 601 
Q 1400 384 1738 384 
Q 2144 384 2425 690 
Q 2706 997 2706 1503 
Q 2706 1984 2436 2262 
Q 2166 2541 1728 2541 
Q 1456 2541 1237 2417 
Q 1019 2294 894 2097 
L 366 2166 
L 809 4519 
L 3088 4519 
L 3088 3981 
L 1259 3981 
L 1013 2750 
Q 1425 3038 1878 3038 
Q 2478 3038 2890 2622 
Q 3303 2206 3303 1553 
Q 3303 931 2941 478 
Q 2500 -78 1738 -78 
Q 1113 -78 717 272 
Q 322 622 266 1200 
z
" id="ArialMT-35" transform="scale(0.015625)"/>
       </defs>
       <use xlink:href="#ArialMT-30"/>
       <use x="55.615234" xlink:href="#ArialMT-2e"/>
       <use x="83.398438" xlink:href="#ArialMT-31"/>
       <use x="139.013672" xlink:href="#ArialMT-35"/>
      </g>
     </g>
    </g>
    <g id="xtick_3">
     <g id="line2d_3">
      <path clip-path="url(#pf8fd24a01c)" d="M 484.363636 504 
L 484.363636 69.12 
" style="fill:none;stroke:#ffffff;stroke-linecap:round;"/>
     </g>
     <g id="text_3">
      <!-- 0.20 -->
      <g style="fill:#262626;" transform="translate(473.660121 521.373594)scale(0.11 -0.11)">
       <defs>
        <path d="M 3222 541 
L 3222 0 
L 194 0 
Q 188 203 259 391 
Q 375 700 629 1000 
Q 884 1300 1366 1694 
Q 2113 2306 2375 2664 
Q 2638 3022 2638 3341 
Q 2638 3675 2398 3904 
Q 2159 4134 1775 4134 
Q 1369 4134 1125 3890 
Q 881 3647 878 3216 
L 300 3275 
Q 359 3922 746 4261 
Q 1134 4600 1788 4600 
Q 2447 4600 2831 4234 
Q 3216 3869 3216 3328 
Q 3216 3053 3103 2787 
Q 2991 2522 2730 2228 
Q 2469 1934 1863 1422 
Q 1356 997 1212 845 
Q 1069 694 975 541 
L 3222 541 
z
" id="ArialMT-32" transform="scale(0.015625)"/>
       </defs>
       <use xlink:href="#ArialMT-30"/>
       <use x="55.615234" xlink:href="#ArialMT-2e"/>
       <use x="83.398438" xlink:href="#ArialMT-32"/>
       <use x="139.013672" xlink:href="#ArialMT-30"/>
      </g>
     </g>
    </g>
    <g id="xtick_4">
     <g id="line2d_4">
      <path clip-path="url(#pf8fd24a01c)" d="M 611.181818 504 
L 611.181818 69.12 
" style="fill:none;stroke:#ffffff;stroke-linecap:round;"/>
     </g>
     <g id="text_4">
      <!-- 0.25 -->
      <g style="fill:#262626;" transform="translate(600.478303 521.373594)scale(0.11 -0.11)">
       <use xlink:href="#ArialMT-30"/>
       <use x="55.615234" xlink:href="#ArialMT-2e"/>
       <use x="83.398438" xlink:href="#ArialMT-32"/>
       <use x="139.013672" xlink:href="#ArialMT-35"/>
      </g>
     </g>
    </g>
    <g id="xtick_5">
     <g id="line2d_5">
      <path clip-path="url(#pf8fd24a01c)" d="M 738 504 
L 738 69.12 
" style="fill:none;stroke:#ffffff;stroke-linecap:round;"/>
     </g>
     <g id="text_5">
      <!-- 0.30 -->
      <g style="fill:#262626;" transform="translate(727.296484 521.373594)scale(0.11 -0.11)">
       <defs>
        <path d="M 269 1209 
L 831 1284 
Q 928 806 1161 595 
Q 1394 384 1728 384 
Q 2125 384 2398 659 
Q 2672 934 2672 1341 
Q 2672 1728 2419 1979 
Q 2166 2231 1775 2231 
Q 1616 2231 1378 2169 
L 1441 2663 
Q 1497 2656 1531 2656 
Q 1891 2656 2178 2843 
Q 2466 3031 2466 3422 
Q 2466 3731 2256 3934 
Q 2047 4138 1716 4138 
Q 1388 4138 1169 3931 
Q 950 3725 888 3313 
L 325 3413 
Q 428 3978 793 4289 
Q 1159 4600 1703 4600 
Q 2078 4600 2393 4439 
Q 2709 4278 2876 4000 
Q 3044 3722 3044 3409 
Q 3044 3113 2884 2869 
Q 2725 2625 2413 2481 
Q 2819 2388 3044 2092 
Q 3269 1797 3269 1353 
Q 3269 753 2831 336 
Q 2394 -81 1725 -81 
Q 1122 -81 723 278 
Q 325 638 269 1209 
z
" id="ArialMT-33" transform="scale(0.015625)"/>
       </defs>
       <use xlink:href="#ArialMT-30"/>
       <use x="55.615234" xlink:href="#ArialMT-2e"/>
       <use x="83.398438" xlink:href="#ArialMT-33"/>
       <use x="139.013672" xlink:href="#ArialMT-30"/>
      </g>
     </g>
    </g>
    <g id="xtick_6">
     <g id="line2d_6">
      <path clip-path="url(#pf8fd24a01c)" d="M 864.818182 504 
L 864.818182 69.12 
" style="fill:none;stroke:#ffffff;stroke-linecap:round;"/>
     </g>
     <g id="text_6">
      <!-- 0.35 -->
      <g style="fill:#262626;" transform="translate(854.114666 521.373594)scale(0.11 -0.11)">
       <use xlink:href="#ArialMT-30"/>
       <use x="55.615234" xlink:href="#ArialMT-2e"/>
       <use x="83.398438" xlink:href="#ArialMT-33"/>
       <use x="139.013672" xlink:href="#ArialMT-35"/>
      </g>
     </g>
    </g>
    <g id="xtick_7">
     <g id="line2d_7">
      <path clip-path="url(#pf8fd24a01c)" d="M 991.636364 504 
L 991.636364 69.12 
" style="fill:none;stroke:#ffffff;stroke-linecap:round;"/>
     </g>
     <g id="text_7">
      <!-- 0.40 -->
      <g style="fill:#262626;" transform="translate(980.932848 521.373594)scale(0.11 -0.11)">
       <defs>
        <path d="M 2069 0 
L 2069 1097 
L 81 1097 
L 81 1613 
L 2172 4581 
L 2631 4581 
L 2631 1613 
L 3250 1613 
L 3250 1097 
L 2631 1097 
L 2631 0 
L 2069 0 
z
M 2069 1613 
L 2069 3678 
L 634 1613 
L 2069 1613 
z
" id="ArialMT-34" transform="scale(0.015625)"/>
       </defs>
       <use xlink:href="#ArialMT-30"/>
       <use x="55.615234" xlink:href="#ArialMT-2e"/>
       <use x="83.398438" xlink:href="#ArialMT-34"/>
       <use x="139.013672" xlink:href="#ArialMT-30"/>
      </g>
     </g>
    </g>
    <g id="xtick_8">
     <g id="line2d_8">
      <path clip-path="url(#pf8fd24a01c)" d="M 1118.454545 504 
L 1118.454545 69.12 
" style="fill:none;stroke:#ffffff;stroke-linecap:round;"/>
     </g>
     <g id="text_8">
      <!-- 0.45 -->
      <g style="fill:#262626;" transform="translate(1107.75103 521.373594)scale(0.11 -0.11)">
       <use xlink:href="#ArialMT-30"/>
       <use x="55.615234" xlink:href="#ArialMT-2e"/>
       <use x="83.398438" xlink:href="#ArialMT-34"/>
       <use x="139.013672" xlink:href="#ArialMT-35"/>
      </g>
     </g>
    </g>
    <g id="xtick_9">
     <g id="line2d_9">
      <path clip-path="url(#pf8fd24a01c)" d="M 1245.272727 504 
L 1245.272727 69.12 
" style="fill:none;stroke:#ffffff;stroke-linecap:round;"/>
     </g>
     <g id="text_9">
      <!-- 0.50 -->
      <g style="fill:#262626;" transform="translate(1234.569212 521.373594)scale(0.11 -0.11)">
       <use xlink:href="#ArialMT-30"/>
       <use x="55.615234" xlink:href="#ArialMT-2e"/>
       <use x="83.398438" xlink:href="#ArialMT-35"/>
       <use x="139.013672" xlink:href="#ArialMT-30"/>
      </g>
     </g>
    </g>
    <g id="text_10">
     <!-- P threshold -->
     <g style="fill:#262626;" transform="translate(707.755312 536.149219)scale(0.12 -0.12)">
      <defs>
       <path d="M 494 0 
L 494 4581 
L 2222 4581 
Q 2678 4581 2919 4538 
Q 3256 4481 3484 4323 
Q 3713 4166 3852 3881 
Q 3991 3597 3991 3256 
Q 3991 2672 3619 2267 
Q 3247 1863 2275 1863 
L 1100 1863 
L 1100 0 
L 494 0 
z
M 1100 2403 
L 2284 2403 
Q 2872 2403 3119 2622 
Q 3366 2841 3366 3238 
Q 3366 3525 3220 3729 
Q 3075 3934 2838 4000 
Q 2684 4041 2272 4041 
L 1100 4041 
L 1100 2403 
z
" id="ArialMT-50" transform="scale(0.015625)"/>
       <path id="ArialMT-20" transform="scale(0.015625)"/>
       <path d="M 1650 503 
L 1731 6 
Q 1494 -44 1306 -44 
Q 1000 -44 831 53 
Q 663 150 594 308 
Q 525 466 525 972 
L 525 2881 
L 113 2881 
L 113 3319 
L 525 3319 
L 525 4141 
L 1084 4478 
L 1084 3319 
L 1650 3319 
L 1650 2881 
L 1084 2881 
L 1084 941 
Q 1084 700 1114 631 
Q 1144 563 1211 522 
Q 1278 481 1403 481 
Q 1497 481 1650 503 
z
" id="ArialMT-74" transform="scale(0.015625)"/>
       <path d="M 422 0 
L 422 4581 
L 984 4581 
L 984 2938 
Q 1378 3394 1978 3394 
Q 2347 3394 2619 3248 
Q 2891 3103 3008 2847 
Q 3125 2591 3125 2103 
L 3125 0 
L 2563 0 
L 2563 2103 
Q 2563 2525 2380 2717 
Q 2197 2909 1863 2909 
Q 1613 2909 1392 2779 
Q 1172 2650 1078 2428 
Q 984 2206 984 1816 
L 984 0 
L 422 0 
z
" id="ArialMT-68" transform="scale(0.015625)"/>
       <path d="M 416 0 
L 416 3319 
L 922 3319 
L 922 2816 
Q 1116 3169 1280 3281 
Q 1444 3394 1641 3394 
Q 1925 3394 2219 3213 
L 2025 2691 
Q 1819 2813 1613 2813 
Q 1428 2813 1281 2702 
Q 1134 2591 1072 2394 
Q 978 2094 978 1738 
L 978 0 
L 416 0 
z
" id="ArialMT-72" transform="scale(0.015625)"/>
       <path d="M 2694 1069 
L 3275 997 
Q 3138 488 2766 206 
Q 2394 -75 1816 -75 
Q 1088 -75 661 373 
Q 234 822 234 1631 
Q 234 2469 665 2931 
Q 1097 3394 1784 3394 
Q 2450 3394 2872 2941 
Q 3294 2488 3294 1666 
Q 3294 1616 3291 1516 
L 816 1516 
Q 847 969 1125 678 
Q 1403 388 1819 388 
Q 2128 388 2347 550 
Q 2566 713 2694 1069 
z
M 847 1978 
L 2700 1978 
Q 2663 2397 2488 2606 
Q 2219 2931 1791 2931 
Q 1403 2931 1139 2672 
Q 875 2413 847 1978 
z
" id="ArialMT-65" transform="scale(0.015625)"/>
       <path d="M 197 991 
L 753 1078 
Q 800 744 1014 566 
Q 1228 388 1613 388 
Q 2000 388 2187 545 
Q 2375 703 2375 916 
Q 2375 1106 2209 1216 
Q 2094 1291 1634 1406 
Q 1016 1563 777 1677 
Q 538 1791 414 1992 
Q 291 2194 291 2438 
Q 291 2659 392 2848 
Q 494 3038 669 3163 
Q 800 3259 1026 3326 
Q 1253 3394 1513 3394 
Q 1903 3394 2198 3281 
Q 2494 3169 2634 2976 
Q 2775 2784 2828 2463 
L 2278 2388 
Q 2241 2644 2061 2787 
Q 1881 2931 1553 2931 
Q 1166 2931 1000 2803 
Q 834 2675 834 2503 
Q 834 2394 903 2306 
Q 972 2216 1119 2156 
Q 1203 2125 1616 2013 
Q 2213 1853 2448 1751 
Q 2684 1650 2818 1456 
Q 2953 1263 2953 975 
Q 2953 694 2789 445 
Q 2625 197 2315 61 
Q 2006 -75 1616 -75 
Q 969 -75 630 194 
Q 291 463 197 991 
z
" id="ArialMT-73" transform="scale(0.015625)"/>
       <path d="M 213 1659 
Q 213 2581 725 3025 
Q 1153 3394 1769 3394 
Q 2453 3394 2887 2945 
Q 3322 2497 3322 1706 
Q 3322 1066 3130 698 
Q 2938 331 2570 128 
Q 2203 -75 1769 -75 
Q 1072 -75 642 372 
Q 213 819 213 1659 
z
M 791 1659 
Q 791 1022 1069 705 
Q 1347 388 1769 388 
Q 2188 388 2466 706 
Q 2744 1025 2744 1678 
Q 2744 2294 2464 2611 
Q 2184 2928 1769 2928 
Q 1347 2928 1069 2612 
Q 791 2297 791 1659 
z
" id="ArialMT-6f" transform="scale(0.015625)"/>
       <path d="M 409 0 
L 409 4581 
L 972 4581 
L 972 0 
L 409 0 
z
" id="ArialMT-6c" transform="scale(0.015625)"/>
       <path d="M 2575 0 
L 2575 419 
Q 2259 -75 1647 -75 
Q 1250 -75 917 144 
Q 584 363 401 755 
Q 219 1147 219 1656 
Q 219 2153 384 2558 
Q 550 2963 881 3178 
Q 1213 3394 1622 3394 
Q 1922 3394 2156 3267 
Q 2391 3141 2538 2938 
L 2538 4581 
L 3097 4581 
L 3097 0 
L 2575 0 
z
M 797 1656 
Q 797 1019 1065 703 
Q 1334 388 1700 388 
Q 2069 388 2326 689 
Q 2584 991 2584 1609 
Q 2584 2291 2321 2609 
Q 2059 2928 1675 2928 
Q 1300 2928 1048 2622 
Q 797 2316 797 1656 
z
" id="ArialMT-64" transform="scale(0.015625)"/>
      </defs>
      <use xlink:href="#ArialMT-50"/>
      <use x="64.949219" xlink:href="#ArialMT-20"/>
      <use x="92.732422" xlink:href="#ArialMT-74"/>
      <use x="120.515625" xlink:href="#ArialMT-68"/>
      <use x="176.130859" xlink:href="#ArialMT-72"/>
      <use x="209.431641" xlink:href="#ArialMT-65"/>
      <use x="265.046875" xlink:href="#ArialMT-73"/>
      <use x="315.046875" xlink:href="#ArialMT-68"/>
      <use x="370.662109" xlink:href="#ArialMT-6f"/>
      <use x="426.277344" xlink:href="#ArialMT-6c"/>
      <use x="448.494141" xlink:href="#ArialMT-64"/>
     </g>
    </g>
   </g>
   <g id="matplotlib.axis_2">
    <g id="ytick_1">
     <g id="line2d_10">
      <path clip-path="url(#pf8fd24a01c)" d="M 180 468.264732 
L 1296 468.264732 
" style="fill:none;stroke:#ffffff;stroke-linecap:round;"/>
     </g>
     <g id="text_11">
      <!-- 0.4 -->
      <g style="fill:#262626;" transform="translate(155.21 472.201529)scale(0.11 -0.11)">
       <use xlink:href="#ArialMT-30"/>
       <use x="55.615234" xlink:href="#ArialMT-2e"/>
       <use x="83.398438" xlink:href="#ArialMT-34"/>
      </g>
     </g>
    </g>
    <g id="ytick_2">
     <g id="line2d_11">
      <path clip-path="url(#pf8fd24a01c)" d="M 180 398.848308 
L 1296 398.848308 
" style="fill:none;stroke:#ffffff;stroke-linecap:round;"/>
     </g>
     <g id="text_12">
      <!-- 0.5 -->
      <g style="fill:#262626;" transform="translate(155.21 402.785105)scale(0.11 -0.11)">
       <use xlink:href="#ArialMT-30"/>
       <use x="55.615234" xlink:href="#ArialMT-2e"/>
       <use x="83.398438" xlink:href="#ArialMT-35"/>
      </g>
     </g>
    </g>
    <g id="ytick_3">
     <g id="line2d_12">
      <path clip-path="url(#pf8fd24a01c)" d="M 180 329.431885 
L 1296 329.431885 
" style="fill:none;stroke:#ffffff;stroke-linecap:round;"/>
     </g>
     <g id="text_13">
      <!-- 0.6 -->
      <g style="fill:#262626;" transform="translate(155.21 333.368682)scale(0.11 -0.11)">
       <defs>
        <path d="M 3184 3459 
L 2625 3416 
Q 2550 3747 2413 3897 
Q 2184 4138 1850 4138 
Q 1581 4138 1378 3988 
Q 1113 3794 959 3422 
Q 806 3050 800 2363 
Q 1003 2672 1297 2822 
Q 1591 2972 1913 2972 
Q 2475 2972 2870 2558 
Q 3266 2144 3266 1488 
Q 3266 1056 3080 686 
Q 2894 316 2569 119 
Q 2244 -78 1831 -78 
Q 1128 -78 684 439 
Q 241 956 241 2144 
Q 241 3472 731 4075 
Q 1159 4600 1884 4600 
Q 2425 4600 2770 4297 
Q 3116 3994 3184 3459 
z
M 888 1484 
Q 888 1194 1011 928 
Q 1134 663 1356 523 
Q 1578 384 1822 384 
Q 2178 384 2434 671 
Q 2691 959 2691 1453 
Q 2691 1928 2437 2201 
Q 2184 2475 1800 2475 
Q 1419 2475 1153 2201 
Q 888 1928 888 1484 
z
" id="ArialMT-36" transform="scale(0.015625)"/>
       </defs>
       <use xlink:href="#ArialMT-30"/>
       <use x="55.615234" xlink:href="#ArialMT-2e"/>
       <use x="83.398438" xlink:href="#ArialMT-36"/>
      </g>
     </g>
    </g>
    <g id="ytick_4">
     <g id="line2d_13">
      <path clip-path="url(#pf8fd24a01c)" d="M 180 260.015461 
L 1296 260.015461 
" style="fill:none;stroke:#ffffff;stroke-linecap:round;"/>
     </g>
     <g id="text_14">
      <!-- 0.7 -->
      <g style="fill:#262626;" transform="translate(155.21 263.952258)scale(0.11 -0.11)">
       <defs>
        <path d="M 303 3981 
L 303 4522 
L 3269 4522 
L 3269 4084 
Q 2831 3619 2401 2847 
Q 1972 2075 1738 1259 
Q 1569 684 1522 0 
L 944 0 
Q 953 541 1156 1306 
Q 1359 2072 1739 2783 
Q 2119 3494 2547 3981 
L 303 3981 
z
" id="ArialMT-37" transform="scale(0.015625)"/>
       </defs>
       <use xlink:href="#ArialMT-30"/>
       <use x="55.615234" xlink:href="#ArialMT-2e"/>
       <use x="83.398438" xlink:href="#ArialMT-37"/>
      </g>
     </g>
    </g>
    <g id="ytick_5">
     <g id="line2d_14">
      <path clip-path="url(#pf8fd24a01c)" d="M 180 190.599038 
L 1296 190.599038 
" style="fill:none;stroke:#ffffff;stroke-linecap:round;"/>
     </g>
     <g id="text_15">
      <!-- 0.8 -->
      <g style="fill:#262626;" transform="translate(155.21 194.535835)scale(0.11 -0.11)">
       <defs>
        <path d="M 1131 2484 
Q 781 2613 612 2850 
Q 444 3088 444 3419 
Q 444 3919 803 4259 
Q 1163 4600 1759 4600 
Q 2359 4600 2725 4251 
Q 3091 3903 3091 3403 
Q 3091 3084 2923 2848 
Q 2756 2613 2416 2484 
Q 2838 2347 3058 2040 
Q 3278 1734 3278 1309 
Q 3278 722 2862 322 
Q 2447 -78 1769 -78 
Q 1091 -78 675 323 
Q 259 725 259 1325 
Q 259 1772 486 2073 
Q 713 2375 1131 2484 
z
M 1019 3438 
Q 1019 3113 1228 2906 
Q 1438 2700 1772 2700 
Q 2097 2700 2305 2904 
Q 2513 3109 2513 3406 
Q 2513 3716 2298 3927 
Q 2084 4138 1766 4138 
Q 1444 4138 1231 3931 
Q 1019 3725 1019 3438 
z
M 838 1322 
Q 838 1081 952 856 
Q 1066 631 1291 507 
Q 1516 384 1775 384 
Q 2178 384 2440 643 
Q 2703 903 2703 1303 
Q 2703 1709 2433 1975 
Q 2163 2241 1756 2241 
Q 1359 2241 1098 1978 
Q 838 1716 838 1322 
z
" id="ArialMT-38" transform="scale(0.015625)"/>
       </defs>
       <use xlink:href="#ArialMT-30"/>
       <use x="55.615234" xlink:href="#ArialMT-2e"/>
       <use x="83.398438" xlink:href="#ArialMT-38"/>
      </g>
     </g>
    </g>
    <g id="ytick_6">
     <g id="line2d_15">
      <path clip-path="url(#pf8fd24a01c)" d="M 180 121.182614 
L 1296 121.182614 
" style="fill:none;stroke:#ffffff;stroke-linecap:round;"/>
     </g>
     <g id="text_16">
      <!-- 0.9 -->
      <g style="fill:#262626;" transform="translate(155.21 125.119411)scale(0.11 -0.11)">
       <defs>
        <path d="M 350 1059 
L 891 1109 
Q 959 728 1153 556 
Q 1347 384 1650 384 
Q 1909 384 2104 503 
Q 2300 622 2425 820 
Q 2550 1019 2634 1356 
Q 2719 1694 2719 2044 
Q 2719 2081 2716 2156 
Q 2547 1888 2255 1720 
Q 1963 1553 1622 1553 
Q 1053 1553 659 1965 
Q 266 2378 266 3053 
Q 266 3750 677 4175 
Q 1088 4600 1706 4600 
Q 2153 4600 2523 4359 
Q 2894 4119 3086 3673 
Q 3278 3228 3278 2384 
Q 3278 1506 3087 986 
Q 2897 466 2520 194 
Q 2144 -78 1638 -78 
Q 1100 -78 759 220 
Q 419 519 350 1059 
z
M 2653 3081 
Q 2653 3566 2395 3850 
Q 2138 4134 1775 4134 
Q 1400 4134 1122 3828 
Q 844 3522 844 3034 
Q 844 2597 1108 2323 
Q 1372 2050 1759 2050 
Q 2150 2050 2401 2323 
Q 2653 2597 2653 3081 
z
" id="ArialMT-39" transform="scale(0.015625)"/>
       </defs>
       <use xlink:href="#ArialMT-30"/>
       <use x="55.615234" xlink:href="#ArialMT-2e"/>
       <use x="83.398438" xlink:href="#ArialMT-39"/>
      </g>
     </g>
    </g>
    <g id="text_17">
     <!-- Metric score -->
     <g style="fill:#262626;" transform="translate(148.825 319.23)rotate(-90)scale(0.12 -0.12)">
      <defs>
       <path d="M 475 0 
L 475 4581 
L 1388 4581 
L 2472 1338 
Q 2622 884 2691 659 
Q 2769 909 2934 1394 
L 4031 4581 
L 4847 4581 
L 4847 0 
L 4263 0 
L 4263 3834 
L 2931 0 
L 2384 0 
L 1059 3900 
L 1059 0 
L 475 0 
z
" id="ArialMT-4d" transform="scale(0.015625)"/>
       <path d="M 425 3934 
L 425 4581 
L 988 4581 
L 988 3934 
L 425 3934 
z
M 425 0 
L 425 3319 
L 988 3319 
L 988 0 
L 425 0 
z
" id="ArialMT-69" transform="scale(0.015625)"/>
       <path d="M 2588 1216 
L 3141 1144 
Q 3050 572 2676 248 
Q 2303 -75 1759 -75 
Q 1078 -75 664 370 
Q 250 816 250 1647 
Q 250 2184 428 2587 
Q 606 2991 970 3192 
Q 1334 3394 1763 3394 
Q 2303 3394 2647 3120 
Q 2991 2847 3088 2344 
L 2541 2259 
Q 2463 2594 2264 2762 
Q 2066 2931 1784 2931 
Q 1359 2931 1093 2626 
Q 828 2322 828 1663 
Q 828 994 1084 691 
Q 1341 388 1753 388 
Q 2084 388 2306 591 
Q 2528 794 2588 1216 
z
" id="ArialMT-63" transform="scale(0.015625)"/>
      </defs>
      <use xlink:href="#ArialMT-4d"/>
      <use x="83.300781" xlink:href="#ArialMT-65"/>
      <use x="138.916016" xlink:href="#ArialMT-74"/>
      <use x="166.699219" xlink:href="#ArialMT-72"/>
      <use x="200" xlink:href="#ArialMT-69"/>
      <use x="222.216797" xlink:href="#ArialMT-63"/>
      <use x="272.216797" xlink:href="#ArialMT-20"/>
      <use x="300" xlink:href="#ArialMT-73"/>
      <use x="350" xlink:href="#ArialMT-63"/>
      <use x="400" xlink:href="#ArialMT-6f"/>
      <use x="455.615234" xlink:href="#ArialMT-72"/>
      <use x="488.916016" xlink:href="#ArialMT-65"/>
     </g>
    </g>
   </g>
   <g id="line2d_16">
    <path clip-path="url(#pf8fd24a01c)" d="M 230.727273 241.342871 
L 232.758395 240.512616 
L 233.773956 240.512616 
L 234.789517 241.317627 
L 235.805078 241.109711 
L 236.820639 242.124631 
L 239.867322 242.124631 
L 240.882883 241.708778 
L 241.898444 241.083709 
L 243.929566 240.666136 
L 244.945127 241.893093 
L 245.960688 241.475671 
L 247.99181 241.057557 
L 250.022932 241.057557 
L 251.038493 240.84824 
L 252.054054 240.429085 
L 253.069615 239.799045 
L 254.085176 239.799045 
L 255.100737 239.378146 
L 256.116298 239.167434 
L 257.131859 238.534244 
L 258.14742 238.322829 
L 259.162981 238.322829 
L 260.178542 237.89947 
L 261.194103 237.687525 
L 262.209664 237.263105 
L 263.225225 237.263105 
L 264.240786 236.837976 
L 265.256347 237.651174 
L 266.271908 237.438416 
L 269.318591 237.438416 
L 270.334152 236.799072 
L 271.349713 236.371948 
L 272.365274 236.371948 
L 273.380835 237.187633 
L 274.396396 237.187633 
L 275.411957 236.973875 
L 279.474201 236.973875 
L 282.520885 236.331524 
L 283.536446 236.331524 
L 284.552007 235.902388 
L 285.567568 235.257327 
L 286.583129 235.257327 
L 287.59869 235.041944 
L 290.645373 235.041944 
L 291.660934 234.826379 
L 292.676495 234.826379 
L 293.692056 234.610633 
L 294.707617 235.860422 
L 295.723178 235.64493 
L 296.738739 235.64493 
L 297.7543 236.680976 
L 298.769861 237.503615 
L 299.785422 237.288271 
L 304.863227 237.288271 
L 305.878788 237.072745 
L 307.90991 236.20881 
L 309.941032 236.20881 
L 311.972154 235.775742 
L 314.003276 235.775742 
L 315.018837 235.341937 
L 316.034398 235.341937 
L 317.049959 236.384338 
L 318.06552 235.733023 
L 321.112203 235.08004 
L 322.127764 234.643788 
L 323.143325 234.425383 
L 324.158886 234.425383 
L 327.205569 233.769046 
L 329.236691 233.769046 
L 330.252252 233.549893 
L 331.267813 233.549893 
L 332.283374 233.111023 
L 333.298935 233.939652 
L 334.314496 233.720008 
L 335.330057 234.550845 
L 338.37674 234.550845 
L 339.392301 235.82263 
L 342.438984 235.164143 
L 346.501229 235.164143 
L 348.532351 234.724206 
L 349.547912 234.724206 
L 350.563473 234.062879 
L 351.579034 233.842056 
L 353.610156 233.842056 
L 354.625717 233.621042 
L 355.641278 233.621042 
L 356.656839 233.178442 
L 357.6724 233.178442 
L 359.703522 232.735077 
L 360.719083 232.735077 
L 361.734644 233.792814 
L 362.750205 233.792814 
L 363.765766 233.571109 
L 366.812449 233.571109 
L 367.82801 233.127124 
L 368.843571 234.187495 
L 369.859132 233.520873 
L 370.874693 233.29828 
L 371.890254 232.629339 
L 372.905815 232.629339 
L 374.936937 232.182407 
L 378.999181 232.182407 
L 380.014742 231.958649 
L 381.030303 232.799864 
L 385.092547 231.903174 
L 387.123669 231.003346 
L 388.13923 232.29752 
L 389.154791 232.072538 
L 391.185913 232.072538 
L 392.201474 231.84736 
L 393.217035 231.39641 
L 394.232596 231.39641 
L 395.248157 231.170638 
L 396.263718 231.170638 
L 397.279279 230.944668 
L 398.29484 230.944668 
L 399.310401 230.718499 
L 400.325962 232.017097 
L 401.341523 231.565107 
L 402.357084 232.187732 
L 405.403767 232.187732 
L 406.419328 231.961314 
L 407.434889 231.961314 
L 409.466011 231.507878 
L 410.481572 232.812556 
L 411.497133 232.812556 
L 412.512695 233.89232 
L 415.559378 233.89232 
L 416.574939 233.666054 
L 417.5905 233.666054 
L 418.606061 232.986057 
L 419.621622 232.75899 
L 420.637183 232.75899 
L 421.652744 232.531722 
L 425.714988 232.531722 
L 427.74611 232.076582 
L 431.808354 232.076582 
L 432.823915 233.387875 
L 438.917281 232.020487 
L 439.932842 231.563069 
L 440.948403 231.334054 
L 441.963964 231.334054 
L 442.979525 231.104835 
L 445.010647 231.104835 
L 446.026208 230.645784 
L 447.041769 230.645784 
L 448.05733 230.415952 
L 449.072891 229.955671 
L 450.088452 229.725222 
L 451.104013 230.815258 
L 452.119574 230.815258 
L 453.135135 230.584885 
L 454.150696 230.123519 
L 456.181818 230.123519 
L 457.197379 231.446857 
L 459.228501 230.985644 
L 460.244062 232.311149 
L 461.259623 232.311149 
L 462.275184 233.637843 
L 466.337428 233.637843 
L 467.352989 233.407909 
L 468.36855 233.407909 
L 470.399672 235.607348 
L 471.415233 236.939106 
L 476.493038 236.939106 
L 478.524161 236.480762 
L 481.570844 236.480762 
L 482.586405 236.021592 
L 486.648649 235.100763 
L 487.66421 236.437706 
L 488.679771 236.207479 
L 489.695332 236.207479 
L 490.710893 235.977043 
L 492.742015 235.977043 
L 493.757576 235.7464 
L 495.788698 235.7464 
L 496.804259 237.086054 
L 497.81982 238.197075 
L 498.835381 237.967019 
L 499.850942 239.310109 
L 501.882064 239.310109 
L 503.913186 241.542244 
L 504.928747 241.313081 
L 505.944308 241.313081 
L 506.959869 241.083709 
L 507.97543 241.083709 
L 508.990991 242.203422 
L 510.006552 241.974142 
L 511.022113 241.514957 
L 513.053235 241.054933 
L 515.084357 241.054933 
L 516.099918 242.178197 
L 517.115479 241.948173 
L 518.13104 241.948173 
L 519.146601 241.717939 
L 525.239967 241.717939 
L 526.255528 241.487495 
L 527.271089 242.843863 
L 528.28665 242.383372 
L 530.317772 242.383372 
L 532.348894 241.922037 
L 535.395577 241.922037 
L 536.411138 241.459856 
L 543.520066 241.459856 
L 544.535627 241.228448 
L 547.58231 241.228448 
L 548.597871 240.996827 
L 550.628993 240.996827 
L 551.644554 241.895733 
L 552.660115 241.663993 
L 554.691237 241.663993 
L 555.706798 242.797122 
L 557.73792 242.797122 
L 559.769042 242.333618 
L 560.784603 242.333618 
L 561.800164 242.101546 
L 562.815725 243.469454 
L 563.831286 244.607386 
L 566.877969 244.607386 
L 567.89353 244.375935 
L 568.909091 244.375935 
L 569.924652 244.14427 
L 570.940213 245.516282 
L 572.971335 245.516282 
L 573.986896 246.427702 
L 576.018018 245.964986 
L 577.033579 245.964986 
L 579.064701 245.501411 
L 580.080262 245.501411 
L 581.095823 245.269301 
L 582.111384 245.269301 
L 583.126945 245.036976 
L 585.158067 245.036976 
L 587.189189 244.571677 
L 588.20475 244.571677 
L 589.220311 244.338704 
L 590.235872 245.719099 
L 592.266994 245.253569 
L 593.282555 245.253569 
L 594.298116 246.636318 
L 598.36036 246.636318 
L 599.375921 248.020355 
L 600.391482 247.788337 
L 601.407043 247.788337 
L 602.422604 249.174202 
L 603.438165 249.174202 
L 604.453726 248.942506 
L 605.469287 248.942506 
L 606.484848 248.710593 
L 607.50041 248.710593 
L 609.531532 248.246119 
L 610.547093 248.246119 
L 611.562654 248.013556 
L 616.640459 248.013556 
L 618.671581 247.547778 
L 620.702703 247.547778 
L 621.718264 247.081128 
L 622.733825 247.081128 
L 625.780508 246.379511 
L 629.842752 246.379511 
L 631.873874 245.910669 
L 632.889435 245.910669 
L 633.904996 247.071206 
L 634.920557 247.071206 
L 635.936118 249.632384 
L 636.951679 249.632384 
L 638.982801 249.16506 
L 639.998362 248.696855 
L 641.013923 251.268795 
L 647.107289 251.268795 
L 648.12285 251.035244 
L 649.138411 251.035244 
L 650.153972 250.567479 
L 651.169533 250.567479 
L 652.185094 250.333265 
L 653.200655 250.333265 
L 654.216216 250.098829 
L 656.247338 250.098829 
L 658.27846 249.629292 
L 660.309582 249.629292 
L 662.340704 249.158864 
L 663.356265 249.158864 
L 664.371826 250.569035 
L 665.387387 250.569035 
L 667.418509 250.098829 
L 668.43407 250.098829 
L 669.449631 249.863392 
L 670.465192 251.041475 
L 671.480753 250.80615 
L 672.496314 251.986813 
L 673.511876 253.404373 
L 674.527437 254.589201 
L 675.542998 254.589201 
L 678.589681 253.88561 
L 679.605242 253.88561 
L 680.620803 253.650632 
L 681.636364 252.944348 
L 682.651925 252.944348 
L 683.667486 252.472365 
L 685.698608 251.999478 
L 686.714169 253.426558 
L 687.72973 253.190345 
L 688.745291 252.717239 
L 689.760852 253.674538 
L 691.791974 253.674538 
L 692.807535 255.107229 
L 694.838657 254.634602 
L 696.869779 254.634602 
L 697.88534 254.397947 
L 698.900901 257.270935 
L 707.025389 257.270935 
L 709.056511 256.799256 
L 712.103194 256.799256 
L 713.118755 258.238991 
L 715.149877 260.653542 
L 722.258804 260.653542 
L 723.274365 260.418655 
L 724.289926 261.395041 
L 726.321048 260.924847 
L 730.383292 260.924847 
L 731.398853 260.453739 
L 733.429975 263.356359 
L 735.461097 263.356359 
L 736.476658 264.809786 
L 737.492219 264.575664 
L 738.507781 265.563363 
L 740.538903 265.094712 
L 742.570025 265.094712 
L 743.585586 264.860043 
L 744.601147 264.390019 
L 745.616708 264.390019 
L 746.632269 263.919074 
L 747.64783 265.38131 
L 749.678952 265.38131 
L 750.694513 266.610362 
L 751.710074 266.610362 
L 752.725635 268.076065 
L 755.772318 268.076065 
L 757.80344 267.137716 
L 758.819001 267.137716 
L 759.834562 268.372721 
L 762.881245 268.372721 
L 763.896806 269.844335 
L 764.912367 269.610156 
L 765.927928 269.610156 
L 766.943489 269.375747 
L 769.990172 269.375747 
L 771.005733 269.141106 
L 772.021294 269.141106 
L 773.036855 268.906235 
L 778.11466 276.298326 
L 779.130221 276.298326 
L 780.145782 276.066294 
L 781.161343 277.318071 
L 782.176904 277.318071 
L 783.192465 278.803578 
L 784.208026 278.803578 
L 786.239148 278.340847 
L 787.254709 278.340847 
L 789.285831 277.877198 
L 790.301392 277.877198 
L 792.332514 280.857613 
L 794.363636 280.857613 
L 795.379197 280.626693 
L 796.394758 282.119747 
L 797.410319 283.384392 
L 798.42588 283.154269 
L 801.472563 283.154269 
L 802.488124 284.651554 
L 804.519247 284.651554 
L 805.534808 284.421833 
L 806.550369 287.422145 
L 807.56593 286.964552 
L 812.643735 286.964552 
L 813.659296 286.735413 
L 817.72154 286.735413 
L 818.737101 285.816563 
L 819.752662 285.125009 
L 820.768223 285.125009 
L 821.783784 286.633789 
L 822.799345 286.40345 
L 824.830467 286.40345 
L 825.846028 286.172879 
L 826.861589 285.711044 
L 827.87715 288.738295 
L 828.892711 288.738295 
L 830.923833 287.817001 
L 833.970516 287.817001 
L 834.986077 287.586097 
L 837.017199 287.586097 
L 838.03276 289.105249 
L 842.095004 289.105249 
L 843.110565 288.644042 
L 846.157248 288.644042 
L 847.172809 290.166029 
L 848.18837 289.935729 
L 850.219492 289.935729 
L 851.235053 289.705196 
L 852.250614 289.705196 
L 853.266175 289.243429 
L 855.297297 289.243429 
L 857.328419 288.780727 
L 858.34398 288.780727 
L 859.359541 288.549024 
L 860.375102 288.549024 
L 861.390663 288.317086 
L 862.406224 291.376181 
L 863.421785 291.145325 
L 864.437346 291.145325 
L 865.452907 290.914235 
L 867.484029 290.914235 
L 869.515152 290.45135 
L 870.530713 290.45135 
L 872.561835 293.521963 
L 874.592957 293.521963 
L 875.608518 293.291495 
L 880.686323 293.291495 
L 881.701884 294.829814 
L 882.717445 296.140335 
L 883.733006 296.140335 
L 884.748567 295.910733 
L 885.764128 295.910733 
L 886.779689 297.453532 
L 887.79525 297.453532 
L 888.810811 298.769416 
L 889.826372 298.540689 
L 891.857494 298.540689 
L 893.888616 298.082532 
L 903.028665 298.082532 
L 904.044226 299.631187 
L 905.059787 299.402433 
L 906.075348 298.94422 
L 907.090909 300.267717 
L 908.10647 301.822269 
L 911.153153 301.822269 
L 912.168714 303.37842 
L 914.199836 303.37842 
L 915.215397 304.709206 
L 916.230958 304.709206 
L 917.246519 304.482007 
L 918.26208 304.482007 
L 919.277641 303.799002 
L 920.293202 303.799002 
L 921.308763 305.361794 
L 922.324324 304.906661 
L 923.339885 304.906661 
L 924.355446 304.678742 
L 926.386568 303.764704 
L 927.402129 305.333955 
L 931.464373 305.333955 
L 932.479934 305.105549 
L 934.511057 305.105549 
L 935.526618 306.677124 
L 937.55774 306.677124 
L 938.573301 306.449177 
L 939.588862 306.449177 
L 940.604423 308.023081 
L 942.635545 308.023081 
L 943.651106 307.795597 
L 944.666667 309.371837 
L 947.71335 309.371837 
L 948.728911 309.144818 
L 950.760033 309.144818 
L 951.775594 308.917562 
L 952.791155 308.917562 
L 953.806716 308.46234 
L 954.822277 310.043035 
L 955.837838 311.398823 
L 956.853399 312.983526 
L 964.977887 312.983526 
L 965.993448 312.757444 
L 970.055692 312.757444 
L 971.071253 312.531126 
L 972.086814 312.531126 
L 973.102375 312.304571 
L 974.117936 312.304571 
L 975.133497 313.666983 
L 976.149058 313.666983 
L 979.195741 312.987323 
L 982.242424 312.987323 
L 983.257985 312.533028 
L 984.273546 312.533028 
L 985.289107 314.127477 
L 987.320229 314.127477 
L 988.33579 313.673664 
L 989.351351 313.446399 
L 995.444717 313.446399 
L 997.475839 316.644649 
L 998.4914 316.644649 
L 999.506962 318.2463 
L 1001.538084 318.2463 
L 1002.553645 319.849639 
L 1012.709255 319.849639 
L 1013.724816 319.625031 
L 1016.771499 319.625031 
L 1018.802621 322.83824 
L 1020.833743 322.83824 
L 1021.849304 326.058239 
L 1022.864865 326.058239 
L 1023.880426 327.670792 
L 1024.895987 327.228189 
L 1025.911548 328.843922 
L 1026.927109 328.843922 
L 1027.94267 328.623007 
L 1028.958231 328.623007 
L 1029.973792 329.800142 
L 1033.020475 329.800142 
L 1034.036036 329.579266 
L 1036.067158 329.579266 
L 1037.082719 329.13681 
L 1038.09828 329.13681 
L 1040.129402 332.385775 
L 1041.144963 332.385775 
L 1043.176085 331.504017 
L 1044.191646 331.504017 
L 1045.207207 331.28299 
L 1046.222768 331.28299 
L 1049.269451 336.180704 
L 1050.285012 336.180704 
L 1051.300573 337.816766 
L 1053.331695 337.816766 
L 1054.347256 339.454577 
L 1062.471744 339.454577 
L 1063.487305 339.237094 
L 1068.565111 339.237094 
L 1069.580672 339.019378 
L 1070.596233 339.019378 
L 1071.611794 340.660465 
L 1072.627355 340.443279 
L 1073.642916 340.443279 
L 1074.658477 342.08689 
L 1076.689599 342.08689 
L 1077.70516 341.870235 
L 1078.720721 343.083906 
L 1079.736282 343.083906 
L 1080.751843 342.650505 
L 1082.782965 345.954265 
L 1084.814087 345.954265 
L 1085.829648 345.73876 
L 1091.923014 345.73876 
L 1092.938575 349.051198 
L 1094.969697 349.051198 
L 1097.000819 348.622602 
L 1098.01638 348.622602 
L 1099.031941 351.94532 
L 1100.047502 351.94532 
L 1101.063063 351.732239 
L 1102.078624 351.305387 
L 1103.094185 352.758813 
L 1104.109746 354.427821 
L 1105.125307 354.215394 
L 1106.140868 355.887004 
L 1108.17199 355.887004 
L 1109.187551 355.675139 
L 1112.234234 355.675139 
L 1113.249795 359.025401 
L 1114.265356 358.814898 
L 1115.280917 358.814898 
L 1118.3276 358.182011 
L 1119.343161 358.182011 
L 1120.358722 357.758936 
L 1124.420966 357.758936 
L 1125.436527 357.547052 
L 1130.514333 357.547052 
L 1131.529894 357.122589 
L 1132.545455 356.91001 
L 1134.576577 356.91001 
L 1135.592138 356.697198 
L 1137.62326 356.697198 
L 1139.654382 356.270875 
L 1140.669943 356.270875 
L 1141.685504 356.057362 
L 1142.701065 356.057362 
L 1143.716626 355.843616 
L 1145.747748 355.843616 
L 1146.763309 357.533542 
L 1148.794431 357.106966 
L 1152.856675 357.106966 
L 1153.872236 356.893327 
L 1154.887797 356.893327 
L 1155.903358 356.679453 
L 1156.918919 356.679453 
L 1157.93448 356.465344 
L 1158.950041 358.161192 
L 1159.965602 358.161192 
L 1160.981163 359.858908 
L 1161.996724 359.858908 
L 1163.012285 361.346602 
L 1166.058968 361.346602 
L 1167.074529 362.837581 
L 1169.105651 362.837581 
L 1170.121212 362.626044 
L 1174.183456 362.626044 
L 1175.199017 364.331855 
L 1176.214578 363.909732 
L 1177.230139 363.698321 
L 1178.2457 363.698321 
L 1179.261261 365.197688 
L 1180.276822 365.197688 
L 1181.292383 364.986638 
L 1182.307944 368.416025 
L 1186.370188 368.416025 
L 1187.385749 367.786485 
L 1188.40131 369.50655 
L 1189.416871 369.297076 
L 1190.432432 370.811034 
L 1191.447993 370.811034 
L 1192.463554 372.536621 
L 1193.479115 372.536621 
L 1194.494676 374.264132 
L 1195.510238 374.056729 
L 1196.525799 375.787018 
L 1197.54136 375.580234 
L 1200.588043 375.580234 
L 1201.603604 375.373218 
L 1202.619165 377.107147 
L 1204.650287 377.107147 
L 1205.665848 378.843016 
L 1206.681409 378.843016 
L 1208.712531 378.431713 
L 1209.728092 380.171244 
L 1211.759214 380.171244 
L 1212.774775 379.966107 
L 1214.805897 379.966107 
L 1215.821458 383.249112 
L 1218.868141 383.249112 
L 1219.883702 384.99624 
L 1220.899263 388.496394 
L 1221.914824 388.295136 
L 1222.930385 393.562794 
L 1223.945946 393.363941 
L 1225.977068 393.363941 
L 1226.992629 394.926477 
L 1229.023751 394.926477 
L 1230.039312 394.529413 
L 1231.054873 394.529413 
L 1232.070434 396.29479 
L 1235.117117 396.29479 
L 1236.132678 396.096808 
L 1239.179361 396.096808 
L 1241.210483 395.700171 
L 1242.226044 395.700171 
L 1245.272727 401.01634 
L 1245.272727 401.01634 
" style="fill:none;stroke:#4c72b0;stroke-linecap:round;stroke-width:1.5;"/>
   </g>
   <g id="line2d_17">
    <path clip-path="url(#pf8fd24a01c)" d="M 230.727273 484.232727 
L 232.758395 483.113165 
L 234.789517 483.011998 
L 235.805078 482.729594 
L 236.820639 482.910178 
L 239.867322 482.910178 
L 240.882883 482.342712 
L 241.898444 481.486908 
L 243.929566 480.913278 
L 244.945127 481.379236 
L 245.960688 480.803498 
L 247.99181 480.22525 
L 250.022932 480.22525 
L 251.038493 479.935179 
L 252.054054 479.353132 
L 253.069615 478.475271 
L 254.085176 478.475271 
L 255.100737 477.886811 
L 256.116298 477.591608 
L 257.131859 476.702087 
L 258.14742 476.404268 
L 259.162981 476.404268 
L 260.178542 475.806649 
L 261.194103 475.506845 
L 262.209664 474.905235 
L 263.225225 474.905235 
L 264.240786 474.300943 
L 265.256347 474.165905 
L 266.271908 473.861577 
L 269.318591 473.861577 
L 270.334152 472.944491 
L 271.349713 472.329658 
L 272.365274 472.329658 
L 273.380835 472.186564 
L 274.396396 472.186564 
L 275.411957 471.876899 
L 279.474201 471.876899 
L 282.520885 470.943686 
L 283.536446 470.943686 
L 284.552007 470.318005 
L 285.567568 469.374127 
L 286.583129 469.374127 
L 287.59869 469.058063 
L 290.645373 469.058063 
L 291.660934 468.741275 
L 292.676495 468.741275 
L 293.692056 468.423762 
L 294.707617 468.90158 
L 295.723178 468.583522 
L 296.738739 468.583522 
L 297.7543 468.744017 
L 298.769861 468.585362 
L 299.785422 468.264732 
L 304.863227 468.264732 
L 305.878788 467.94336 
L 307.90991 466.650397 
L 309.941032 466.650397 
L 311.972154 465.999394 
L 314.003276 465.999394 
L 315.018837 465.34535 
L 316.034398 465.34535 
L 317.049959 465.501081 
L 318.06552 464.512493 
L 321.112203 463.516911 
L 322.127764 462.849266 
L 323.143325 462.514259 
L 324.158886 462.514259 
L 327.205569 461.504463 
L 329.236691 461.504463 
L 330.252252 461.166263 
L 331.267813 461.166263 
L 332.283374 460.487445 
L 333.298935 460.293468 
L 334.314496 459.951388 
L 335.330057 459.754546 
L 338.37674 459.754546 
L 339.392301 460.245506 
L 342.438984 459.210416 
L 346.501229 459.210416 
L 348.532351 458.516179 
L 349.547912 458.516179 
L 350.563473 457.468496 
L 351.579034 457.117569 
L 353.610156 457.117569 
L 354.625717 456.765787 
L 355.641278 456.765787 
L 356.656839 456.059647 
L 357.6724 456.059647 
L 359.703522 455.350049 
L 360.719083 455.350049 
L 361.734644 455.488703 
L 362.750205 455.488703 
L 363.765766 455.131895 
L 366.812449 455.131895 
L 367.82801 454.415643 
L 368.843571 454.552846 
L 369.859132 453.469658 
L 370.874693 453.106803 
L 371.890254 452.012817 
L 372.905815 452.012817 
L 374.936937 451.278941 
L 378.999181 451.278941 
L 380.014742 450.910626 
L 381.030303 450.671109 
L 385.092547 449.181781 
L 387.123669 447.677352 
L 388.13923 448.179777 
L 389.154791 447.801441 
L 391.185913 447.801441 
L 392.201474 447.422142 
L 393.217035 446.660641 
L 394.232596 446.660641 
L 395.248157 446.278432 
L 396.263718 446.278432 
L 397.279279 445.895245 
L 398.29484 445.895245 
L 399.310401 445.511077 
L 400.325962 446.015878 
L 402.357084 444.587812 
L 405.403767 444.587812 
L 406.419328 444.197977 
L 407.434889 444.197977 
L 409.466011 443.415273 
L 410.481572 443.923908 
L 411.497133 443.923908 
L 412.512695 444.041293 
L 415.559378 444.041293 
L 416.574939 443.647695 
L 417.5905 443.647695 
L 418.606061 442.460721 
L 419.621622 442.062989 
L 420.637183 442.062989 
L 421.652744 441.664213 
L 425.714988 441.664213 
L 427.74611 440.863512 
L 431.808354 440.863512 
L 432.823915 441.376157 
L 438.917281 438.94943 
L 439.932842 438.131904 
L 440.948403 437.721506 
L 441.963964 437.721506 
L 442.979525 437.310012 
L 445.010647 437.310012 
L 446.026208 436.483719 
L 447.041769 436.483719 
L 448.05733 436.068911 
L 449.072891 435.23595 
L 450.088452 434.817788 
L 452.119574 434.914871 
L 453.135135 434.49458 
L 454.150696 433.65058 
L 456.181818 433.65058 
L 457.197379 434.168741 
L 459.228501 433.32041 
L 460.244062 433.840239 
L 461.259623 433.840239 
L 462.275184 434.361486 
L 466.337428 434.361486 
L 467.352989 433.935845 
L 469.384111 434.031975 
L 470.399672 434.128634 
L 471.415233 434.654579 
L 476.493038 434.654579 
L 478.524161 433.795887 
L 481.570844 433.795887 
L 482.586405 432.932445 
L 486.648649 431.191148 
L 487.66421 431.719595 
L 488.679771 431.281366 
L 489.695332 431.281366 
L 490.710893 430.841912 
L 492.742015 430.841912 
L 493.757576 430.401228 
L 495.788698 430.401228 
L 496.804259 430.931529 
L 497.81982 431.021651 
L 498.835381 430.578741 
L 499.850942 431.11228 
L 502.897625 431.203421 
L 503.913186 431.295079 
L 504.928747 430.848787 
L 505.944308 430.848787 
L 506.959869 430.401228 
L 508.990991 430.491123 
L 510.006552 430.041138 
L 511.022113 429.137306 
L 513.053235 428.228287 
L 516.099918 428.312834 
L 517.115479 427.855171 
L 518.13104 427.855171 
L 519.146601 427.396188 
L 525.239967 427.396188 
L 526.255528 426.935879 
L 527.271089 427.478816 
L 528.28665 426.554428 
L 530.317772 426.554428 
L 532.348894 425.624658 
L 535.395577 425.624658 
L 536.411138 424.689459 
L 543.520066 424.689459 
L 544.535627 424.219808 
L 547.58231 424.219808 
L 548.597871 423.748783 
L 550.628993 423.748783 
L 552.660115 422.873138 
L 557.73792 422.944113 
L 559.769042 421.987116 
L 560.784603 421.987116 
L 561.800164 421.506488 
L 562.815725 422.05588 
L 564.846847 422.125053 
L 566.877969 422.125053 
L 567.89353 421.641761 
L 568.909091 421.641761 
L 569.924652 421.157025 
L 570.940213 421.710005 
L 572.971335 421.710005 
L 575.002457 420.802298 
L 576.018018 420.311909 
L 577.033579 420.311909 
L 579.064701 419.326679 
L 580.080262 419.326679 
L 581.095823 418.831824 
L 582.111384 418.831824 
L 583.126945 418.335468 
L 585.158067 418.335468 
L 587.189189 417.338223 
L 588.20475 417.338223 
L 589.220311 416.837321 
L 590.235872 417.394681 
L 592.266994 416.388446 
L 593.282555 416.388446 
L 594.298116 416.947683 
L 598.36036 416.947683 
L 599.375921 417.508637 
L 600.391482 417.003373 
L 601.407043 417.003373 
L 602.422604 417.566142 
L 603.438165 417.566142 
L 604.453726 417.059407 
L 605.469287 417.059407 
L 606.484848 416.551106 
L 607.50041 416.551106 
L 609.531532 415.529775 
L 610.547093 415.529775 
L 611.562654 415.01673 
L 616.640459 415.01673 
L 618.671581 413.985846 
L 620.702703 413.985846 
L 621.718264 412.94852 
L 622.733825 412.94852 
L 625.780508 411.380316 
L 629.842752 411.380316 
L 631.873874 410.326615 
L 634.920557 410.362881 
L 635.936118 410.968636 
L 636.951679 410.968636 
L 638.982801 409.901879 
L 639.998362 408.828305 
L 641.013923 409.433477 
L 647.107289 409.433477 
L 648.12285 408.892486 
L 649.138411 408.892486 
L 650.153972 407.805266 
L 651.169533 407.805266 
L 652.185094 407.259022 
L 653.200655 407.259022 
L 654.216216 406.71101 
L 656.247338 406.71101 
L 658.27846 405.609648 
L 660.309582 405.609648 
L 662.340704 404.501112 
L 663.356265 404.501112 
L 664.371826 405.076536 
L 665.387387 405.076536 
L 667.418509 403.960811 
L 668.43407 403.960811 
L 669.449631 403.400205 
L 670.465192 403.415178 
L 671.480753 402.850903 
L 672.496314 402.864135 
L 673.511876 403.445423 
L 675.542998 403.460695 
L 678.589681 401.745488 
L 679.605242 401.745488 
L 680.620803 401.169928 
L 681.636364 399.43164 
L 682.651925 399.43164 
L 683.667486 398.26301 
L 685.698608 397.08647 
L 686.714169 397.671759 
L 687.72973 397.080488 
L 688.745291 395.891902 
L 689.760852 395.282396 
L 691.791974 395.282396 
L 692.807535 395.871618 
L 694.838657 394.666596 
L 696.869779 394.666596 
L 697.88534 394.060969 
L 698.900901 395.24538 
L 707.025389 395.24538 
L 709.056511 394.027724 
L 712.103194 394.027724 
L 713.118755 394.622961 
L 722.258804 394.593361 
L 726.321048 392.090958 
L 730.383292 392.090958 
L 731.398853 390.833979 
L 733.429975 392.042777 
L 735.461097 392.042777 
L 736.476658 392.650414 
L 740.538903 390.07728 
L 742.570025 390.07728 
L 743.585586 389.433785 
L 744.601147 388.139786 
L 745.616708 388.139786 
L 746.632269 386.836359 
L 747.64783 387.447801 
L 751.710074 387.406041 
L 752.725635 388.021894 
L 755.772318 388.021894 
L 757.80344 385.37562 
L 762.881245 385.325629 
L 763.896806 385.945628 
L 764.912367 385.275265 
L 765.927928 385.275265 
L 766.943489 384.602401 
L 769.990172 384.602401 
L 771.005733 383.927021 
L 772.021294 383.927021 
L 773.036855 383.249112 
L 778.11466 386.382221 
L 779.130221 386.382221 
L 780.145782 385.701259 
L 782.176904 385.65127 
L 783.192465 386.287241 
L 784.208026 386.287241 
L 786.239148 384.911933 
L 787.254709 384.911933 
L 789.285831 383.526065 
L 790.301392 383.526065 
L 792.332514 384.804523 
L 794.363636 384.804523 
L 795.379197 384.107369 
L 796.394758 384.750195 
L 797.410319 384.695445 
L 798.42588 383.992654 
L 801.472563 383.992654 
L 802.488124 384.640269 
L 804.519247 384.640269 
L 805.534808 383.934624 
L 806.550369 385.237245 
L 807.56593 383.817193 
L 812.643735 383.817193 
L 813.659296 383.102966 
L 817.72154 383.102966 
L 818.737101 380.217658 
L 819.752662 378.023381 
L 820.768223 378.023381 
L 821.783784 378.677203 
L 822.799345 377.939747 
L 824.830467 377.939747 
L 825.846028 377.199323 
L 826.861589 375.709501 
L 827.87715 377.023672 
L 828.892711 377.023672 
L 830.923833 374.00603 
L 833.970516 374.00603 
L 834.986077 373.24389 
L 837.017199 373.24389 
L 838.03276 373.904008 
L 842.095004 373.904008 
L 843.110565 372.369879 
L 846.157248 372.369879 
L 847.172809 373.032283 
L 848.18837 372.260237 
L 850.219492 372.260237 
L 851.235053 371.484988 
L 852.250614 371.484988 
L 853.266175 369.924799 
L 855.297297 369.924799 
L 857.328419 368.351553 
L 858.34398 368.351553 
L 859.359541 367.559983 
L 860.375102 367.559983 
L 861.390663 366.765088 
L 862.406224 368.094197 
L 863.421785 367.295389 
L 864.437346 367.295389 
L 865.452907 366.493196 
L 867.484029 366.493196 
L 869.515152 364.878569 
L 870.530713 364.878569 
L 872.561835 366.216656 
L 874.592957 366.216656 
L 875.608518 365.403565 
L 880.686323 365.403565 
L 881.701884 366.076606 
L 882.717445 365.935349 
L 883.733006 365.935349 
L 884.748567 365.114625 
L 885.764128 365.114625 
L 886.779689 365.792869 
L 887.79525 365.792869 
L 888.810811 365.649149 
L 889.826372 364.82065 
L 891.857494 364.82065 
L 893.888616 363.152773 
L 903.028665 363.152773 
L 904.044226 363.835639 
L 905.059787 362.99587 
L 906.075348 361.30521 
L 907.090909 361.138721 
L 908.10647 361.826216 
L 911.153153 361.826216 
L 912.168714 362.516773 
L 914.199836 362.516773 
L 915.215397 362.354216 
L 916.230958 362.354216 
L 917.246519 361.494179 
L 918.26208 361.494179 
L 919.277641 358.890773 
L 920.293202 358.890773 
L 921.308763 359.585625 
L 922.324324 357.829513 
L 923.339885 357.829513 
L 924.355446 356.945456 
L 926.386568 353.368583 
L 927.402129 354.063519 
L 931.464373 354.063519 
L 932.479934 353.158515 
L 934.511057 353.158515 
L 935.526618 353.856182 
L 937.55774 353.856182 
L 938.573301 352.946497 
L 939.588862 352.946497 
L 940.604423 353.646916 
L 942.635545 353.646916 
L 943.651106 352.732503 
L 944.666667 353.435695 
L 947.71335 353.435695 
L 948.728911 352.516504 
L 950.760033 352.516504 
L 951.775594 351.592997 
L 952.791155 351.592997 
L 953.806716 349.732914 
L 954.822277 350.437328 
L 955.837838 350.207347 
L 956.853399 350.917921 
L 964.977887 350.917921 
L 965.993448 349.97517 
L 970.055692 349.97517 
L 971.071253 349.027909 
L 972.086814 349.027909 
L 973.102375 348.076104 
L 974.117936 348.076104 
L 975.133497 347.831419 
L 976.149058 347.831419 
L 979.195741 344.93264 
L 982.242424 344.93264 
L 983.257985 342.976553 
L 984.273546 342.976553 
L 985.289107 343.688559 
L 987.320229 343.688559 
L 988.33579 341.71194 
L 989.351351 340.716328 
L 995.444717 340.716328 
L 997.475839 342.146774 
L 998.4914 342.146774 
L 999.506962 342.867322 
L 1001.538084 342.867322 
L 1002.553645 343.591454 
L 1012.709255 343.591454 
L 1013.724816 342.588115 
L 1016.771499 342.588115 
L 1018.802621 344.045869 
L 1020.833743 344.045869 
L 1021.849304 345.518311 
L 1022.864865 345.518311 
L 1023.880426 346.260109 
L 1024.895987 344.231325 
L 1025.911548 344.975512 
L 1026.927109 344.975512 
L 1027.94267 343.952667 
L 1028.958231 343.952667 
L 1029.973792 342.637066 
L 1033.020475 342.637066 
L 1034.036036 341.59765 
L 1036.067158 341.59765 
L 1037.082719 339.502661 
L 1038.09828 339.502661 
L 1040.129402 341.001289 
L 1041.144963 341.001289 
L 1043.176085 336.738877 
L 1044.191646 336.738877 
L 1045.207207 335.659216 
L 1046.222768 335.659216 
L 1049.269451 337.92432 
L 1050.285012 337.92432 
L 1051.300573 338.687408 
L 1053.331695 338.687408 
L 1054.347256 339.454577 
L 1062.471744 339.454577 
L 1063.487305 338.36483 
L 1068.565111 338.36483 
L 1069.580672 337.269223 
L 1070.596233 337.269223 
L 1071.611794 338.038773 
L 1072.627355 336.936363 
L 1073.642916 336.936363 
L 1074.658477 337.709182 
L 1076.689599 337.709182 
L 1077.70516 336.599885 
L 1078.720721 335.137344 
L 1079.736282 335.137344 
L 1080.751843 332.874022 
L 1082.782965 334.431406 
L 1084.814087 334.431406 
L 1085.829648 333.288353 
L 1091.923014 333.288353 
L 1092.938575 334.861102 
L 1094.969697 334.861102 
L 1097.000819 332.551724 
L 1098.01638 332.551724 
L 1099.031941 334.138083 
L 1100.047502 334.138083 
L 1101.063063 332.971533 
L 1102.078624 330.61849 
L 1103.094185 330.227489 
L 1104.109746 331.027665 
L 1105.125307 329.83198 
L 1106.140868 330.635638 
L 1108.17199 330.635638 
L 1109.187551 329.431885 
L 1112.234234 329.431885 
L 1113.249795 331.050927 
L 1114.265356 329.837829 
L 1115.280917 329.837829 
L 1118.3276 326.155594 
L 1119.343161 326.155594 
L 1120.358722 323.664348 
L 1124.420966 323.664348 
L 1125.436527 322.407604 
L 1130.514333 322.407604 
L 1131.529894 319.871539 
L 1132.545455 318.592083 
L 1134.576577 318.592083 
L 1135.592138 317.304919 
L 1137.62326 317.304919 
L 1139.654382 314.707189 
L 1140.669943 314.707189 
L 1141.685504 313.39648 
L 1142.701065 313.39648 
L 1143.716626 312.077779 
L 1145.747748 312.077779 
L 1146.763309 312.873839 
L 1148.794431 310.208875 
L 1152.856675 310.208875 
L 1153.872236 308.864056 
L 1154.887797 308.864056 
L 1155.903358 307.510909 
L 1156.918919 307.510909 
L 1157.93448 306.149358 
L 1158.950041 306.941829 
L 1159.965602 306.941829 
L 1160.981163 307.739253 
L 1161.996724 307.739253 
L 1163.012285 307.16624 
L 1166.058968 307.16624 
L 1167.074529 306.585973 
L 1169.105651 306.585973 
L 1170.121212 305.191229 
L 1174.183456 305.191229 
L 1175.199017 305.998315 
L 1176.214578 303.178238 
L 1177.230139 301.754597 
L 1178.2457 301.754597 
L 1179.261261 301.126159 
L 1180.276822 301.126159 
L 1181.292383 299.681989 
L 1182.307944 301.302354 
L 1186.370188 301.302354 
L 1187.385749 296.900096 
L 1188.40131 297.711797 
L 1189.416871 296.222699 
L 1190.432432 295.53624 
L 1191.447993 295.53624 
L 1192.463554 296.35426 
L 1193.479115 296.35426 
L 1194.494676 297.177789 
L 1195.510238 295.661733 
L 1196.525799 296.488497 
L 1197.54136 294.959783 
L 1200.588043 294.959783 
L 1201.603604 293.420634 
L 1202.619165 294.248218 
L 1204.650287 294.248218 
L 1205.665848 295.08149 
L 1206.681409 295.08149 
L 1208.712531 291.961428 
L 1209.728092 292.795439 
L 1211.759214 292.795439 
L 1212.774775 291.216572 
L 1218.868141 291.301737 
L 1219.883702 292.148152 
L 1220.899263 293.859056 
L 1221.914824 292.244515 
L 1222.930385 294.848974 
L 1223.945946 293.21462 
L 1225.977068 293.21462 
L 1226.992629 292.443572 
L 1229.023751 292.443572 
L 1230.039312 289.109109 
L 1231.054873 289.109109 
L 1232.070434 289.984914 
L 1235.117117 289.984914 
L 1236.132678 288.296226 
L 1239.179361 288.296226 
L 1241.210483 284.881046 
L 1242.226044 284.881046 
L 1245.272727 287.520082 
L 1245.272727 287.520082 
" style="fill:none;stroke:#dd8452;stroke-linecap:round;stroke-width:1.5;"/>
   </g>
   <g id="line2d_18">
    <path clip-path="url(#pf8fd24a01c)" d="M 230.727273 88.887273 
L 233.773956 88.887273 
L 234.789517 90.743327 
L 235.805078 90.743327 
L 236.820639 92.599381 
L 243.929566 92.599381 
L 244.945127 94.455435 
L 264.240786 94.455435 
L 265.256347 96.311489 
L 272.365274 96.311489 
L 273.380835 98.167543 
L 293.692056 98.167543 
L 294.707617 100.023597 
L 296.738739 100.023597 
L 298.769861 103.735706 
L 316.034398 103.735706 
L 317.049959 105.59176 
L 332.283374 105.59176 
L 333.298935 107.447814 
L 334.314496 107.447814 
L 335.330057 109.303868 
L 338.37674 109.303868 
L 339.392301 111.159922 
L 360.719083 111.159922 
L 361.734644 113.015976 
L 367.82801 113.015976 
L 368.843571 114.87203 
L 380.014742 114.87203 
L 381.030303 116.728084 
L 387.123669 116.728084 
L 388.13923 118.584138 
L 399.310401 118.584138 
L 400.325962 120.440193 
L 401.341523 120.440193 
L 402.357084 122.296247 
L 409.466011 122.296247 
L 410.481572 124.152301 
L 411.497133 124.152301 
L 412.512695 126.008355 
L 431.808354 126.008355 
L 432.823915 127.864409 
L 450.088452 127.864409 
L 451.104013 129.720463 
L 456.181818 129.720463 
L 457.197379 131.576517 
L 459.228501 131.576517 
L 460.244062 133.432571 
L 461.259623 133.432571 
L 462.275184 135.288625 
L 468.36855 135.288625 
L 471.415233 140.856788 
L 486.648649 140.856788 
L 487.66421 142.712842 
L 495.788698 142.712842 
L 497.81982 146.42495 
L 498.835381 146.42495 
L 499.850942 148.281004 
L 501.882064 148.281004 
L 503.913186 151.993112 
L 507.97543 151.993112 
L 508.990991 153.849166 
L 515.084357 153.849166 
L 516.099918 155.705221 
L 526.255528 155.705221 
L 527.271089 157.561275 
L 550.628993 157.561275 
L 551.644554 159.417329 
L 554.691237 159.417329 
L 555.706798 161.273383 
L 561.800164 161.273383 
L 563.831286 164.985491 
L 569.924652 164.985491 
L 570.940213 166.841545 
L 572.971335 166.841545 
L 573.986896 168.697599 
L 589.220311 168.697599 
L 590.235872 170.553653 
L 593.282555 170.553653 
L 594.298116 172.409708 
L 598.36036 172.409708 
L 599.375921 174.265762 
L 601.407043 174.265762 
L 602.422604 176.121816 
L 632.889435 176.121816 
L 633.904996 177.97787 
L 634.920557 177.97787 
L 635.936118 181.689978 
L 639.998362 181.689978 
L 641.013923 185.402086 
L 663.356265 185.402086 
L 664.371826 187.25814 
L 669.449631 187.25814 
L 670.465192 189.114194 
L 671.480753 189.114194 
L 674.527437 194.682357 
L 685.698608 194.682357 
L 686.714169 196.538411 
L 688.745291 196.538411 
L 689.760852 198.394465 
L 691.791974 198.394465 
L 692.807535 200.250519 
L 697.88534 200.250519 
L 698.900901 203.962627 
L 712.103194 203.962627 
L 715.149877 209.53079 
L 723.274365 209.53079 
L 724.289926 211.386844 
L 731.398853 211.386844 
L 733.429975 215.098952 
L 735.461097 215.098952 
L 736.476658 216.955006 
L 737.492219 216.955006 
L 738.507781 218.81106 
L 746.632269 218.81106 
L 747.64783 220.667114 
L 749.678952 220.667114 
L 750.694513 222.523168 
L 751.710074 222.523168 
L 752.725635 224.379222 
L 758.819001 224.379222 
L 759.834562 226.235277 
L 762.881245 226.235277 
L 763.896806 228.091331 
L 773.036855 228.091331 
L 778.11466 237.371601 
L 780.145782 237.371601 
L 781.161343 239.227655 
L 782.176904 239.227655 
L 783.192465 241.083709 
L 790.301392 241.083709 
L 792.332514 244.795818 
L 795.379197 244.795818 
L 797.410319 248.507926 
L 801.472563 248.507926 
L 802.488124 250.36398 
L 805.534808 250.36398 
L 806.550369 254.076088 
L 820.768223 254.076088 
L 821.783784 255.932142 
L 826.861589 255.932142 
L 827.87715 259.644251 
L 837.017199 259.644251 
L 838.03276 261.500305 
L 846.157248 261.500305 
L 847.172809 263.356359 
L 861.390663 263.356359 
L 862.406224 267.068467 
L 870.530713 267.068467 
L 872.561835 270.780575 
L 880.686323 270.780575 
L 882.717445 274.492683 
L 885.764128 274.492683 
L 886.779689 276.348737 
L 887.79525 276.348737 
L 888.810811 278.204792 
L 903.028665 278.204792 
L 904.044226 280.060846 
L 906.075348 280.060846 
L 908.10647 283.772954 
L 911.153153 283.772954 
L 912.168714 285.629008 
L 914.199836 285.629008 
L 915.215397 287.485062 
L 920.293202 287.485062 
L 921.308763 289.341116 
L 926.386568 289.341116 
L 927.402129 291.19717 
L 934.511057 291.19717 
L 935.526618 293.053224 
L 939.588862 293.053224 
L 940.604423 294.909279 
L 943.651106 294.909279 
L 944.666667 296.765333 
L 953.806716 296.765333 
L 956.853399 302.333495 
L 974.117936 302.333495 
L 975.133497 304.189549 
L 984.273546 304.189549 
L 985.289107 306.045603 
L 995.444717 306.045603 
L 997.475839 309.757711 
L 998.4914 309.757711 
L 999.506962 311.613765 
L 1001.538084 311.613765 
L 1002.553645 313.46982 
L 1016.771499 313.46982 
L 1018.802621 317.181928 
L 1020.833743 317.181928 
L 1021.849304 320.894036 
L 1022.864865 320.894036 
L 1023.880426 322.75009 
L 1024.895987 322.75009 
L 1025.911548 324.606144 
L 1028.958231 324.606144 
L 1029.973792 326.462198 
L 1038.09828 326.462198 
L 1040.129402 330.174307 
L 1046.222768 330.174307 
L 1049.269451 335.742469 
L 1050.285012 335.742469 
L 1051.300573 337.598523 
L 1053.331695 337.598523 
L 1054.347256 339.454577 
L 1070.596233 339.454577 
L 1071.611794 341.310631 
L 1073.642916 341.310631 
L 1074.658477 343.166685 
L 1077.70516 343.166685 
L 1078.720721 345.022739 
L 1080.751843 345.022739 
L 1082.782965 348.734848 
L 1091.923014 348.734848 
L 1092.938575 352.446956 
L 1098.01638 352.446956 
L 1099.031941 356.159064 
L 1102.078624 356.159064 
L 1104.109746 359.871172 
L 1105.125307 359.871172 
L 1106.140868 361.727226 
L 1112.234234 361.727226 
L 1113.249795 365.439335 
L 1145.747748 365.439335 
L 1146.763309 367.295389 
L 1157.93448 367.295389 
L 1158.950041 369.151443 
L 1159.965602 369.151443 
L 1160.981163 371.007497 
L 1161.996724 371.007497 
L 1163.012285 372.863551 
L 1166.058968 372.863551 
L 1167.074529 374.719605 
L 1174.183456 374.719605 
L 1175.199017 376.575659 
L 1178.2457 376.575659 
L 1179.261261 378.431713 
L 1181.292383 378.431713 
L 1182.307944 382.143822 
L 1187.385749 382.143822 
L 1188.40131 383.999876 
L 1189.416871 383.999876 
L 1190.432432 385.85593 
L 1191.447993 385.85593 
L 1192.463554 387.711984 
L 1193.479115 387.711984 
L 1194.494676 389.568038 
L 1195.510238 389.568038 
L 1196.525799 391.424092 
L 1201.603604 391.424092 
L 1202.619165 393.280146 
L 1204.650287 393.280146 
L 1205.665848 395.1362 
L 1208.712531 395.1362 
L 1209.728092 396.992254 
L 1214.805897 396.992254 
L 1215.821458 400.704363 
L 1218.868141 400.704363 
L 1219.883702 402.560417 
L 1220.899263 406.272525 
L 1221.914824 406.272525 
L 1222.930385 411.840687 
L 1225.977068 411.840687 
L 1226.992629 413.696741 
L 1231.054873 413.696741 
L 1232.070434 415.552795 
L 1242.226044 415.552795 
L 1245.272727 421.120958 
L 1245.272727 421.120958 
" style="fill:none;stroke:#55a868;stroke-linecap:round;stroke-width:1.5;"/>
   </g>
   <g id="line2d_19">
    <path clip-path="url(#pf8fd24a01c)" d="M 230.727273 350.251878 
L 232.758395 348.278419 
L 233.773956 348.278419 
L 235.805078 347.29169 
L 239.867322 347.29169 
L 240.882883 346.30496 
L 241.898444 344.824866 
L 243.929566 343.838136 
L 244.945127 344.331501 
L 245.960688 343.344772 
L 247.99181 342.358042 
L 250.022932 342.358042 
L 251.038493 341.864677 
L 252.054054 340.877948 
L 253.069615 339.397853 
L 254.085176 339.397853 
L 255.100737 338.411124 
L 256.116298 337.917759 
L 257.131859 336.437665 
L 258.14742 335.9443 
L 259.162981 335.9443 
L 260.178542 334.95757 
L 261.194103 334.464206 
L 262.209664 333.477476 
L 263.225225 333.477476 
L 264.240786 332.490747 
L 266.271908 331.504017 
L 269.318591 331.504017 
L 270.334152 330.023923 
L 271.349713 329.037193 
L 272.365274 329.037193 
L 273.380835 328.543828 
L 274.396396 328.543828 
L 275.411957 328.050464 
L 279.474201 328.050464 
L 282.520885 326.570369 
L 283.536446 326.570369 
L 284.552007 325.58364 
L 285.567568 324.103545 
L 286.583129 324.103545 
L 287.59869 323.610181 
L 290.645373 323.610181 
L 291.660934 323.116816 
L 292.676495 323.116816 
L 293.692056 322.623451 
L 294.707617 323.116816 
L 295.723178 322.623451 
L 297.7543 322.623451 
L 299.785422 321.636721 
L 304.863227 321.636721 
L 305.878788 321.143357 
L 307.90991 319.169898 
L 309.941032 319.169898 
L 311.972154 318.183168 
L 314.003276 318.183168 
L 315.018837 317.196439 
L 317.049959 317.196439 
L 318.06552 315.716344 
L 321.112203 314.23625 
L 322.127764 313.24952 
L 323.143325 312.756156 
L 324.158886 312.756156 
L 327.205569 311.276061 
L 329.236691 311.276061 
L 330.252252 310.782696 
L 331.267813 310.782696 
L 332.283374 309.795967 
L 335.330057 308.315873 
L 338.37674 308.315873 
L 339.392301 308.809237 
L 342.438984 307.329143 
L 346.501229 307.329143 
L 348.532351 306.342414 
L 349.547912 306.342414 
L 350.563473 304.862319 
L 351.579034 304.368954 
L 353.610156 304.368954 
L 354.625717 303.87559 
L 355.641278 303.87559 
L 356.656839 302.88886 
L 357.6724 302.88886 
L 359.703522 301.902131 
L 362.750205 301.902131 
L 363.765766 301.408766 
L 366.812449 301.408766 
L 367.82801 300.422036 
L 368.843571 300.422036 
L 369.859132 298.941942 
L 370.874693 298.448577 
L 371.890254 296.968483 
L 372.905815 296.968483 
L 374.936937 295.981753 
L 378.999181 295.981753 
L 385.092547 293.021565 
L 387.123669 291.048106 
L 388.13923 291.54147 
L 389.154791 291.048106 
L 391.185913 291.048106 
L 392.201474 290.554741 
L 393.217035 289.568011 
L 394.232596 289.568011 
L 395.248157 289.074646 
L 396.263718 289.074646 
L 397.279279 288.581282 
L 398.29484 288.581282 
L 399.310401 288.087917 
L 400.325962 288.581282 
L 402.357084 286.607823 
L 405.403767 286.607823 
L 406.419328 286.114458 
L 407.434889 286.114458 
L 409.466011 285.127728 
L 410.481572 285.621093 
L 415.559378 285.621093 
L 416.574939 285.127728 
L 417.5905 285.127728 
L 418.606061 283.647634 
L 419.621622 283.154269 
L 420.637183 283.154269 
L 421.652744 282.660904 
L 425.714988 282.660904 
L 427.74611 281.674175 
L 431.808354 281.674175 
L 432.823915 282.16754 
L 438.917281 279.207351 
L 439.932842 278.220621 
L 440.948403 277.727257 
L 441.963964 277.727257 
L 442.979525 277.233892 
L 445.010647 277.233892 
L 446.026208 276.247162 
L 447.041769 276.247162 
L 448.05733 275.753798 
L 449.072891 274.767068 
L 450.088452 274.273703 
L 452.119574 274.273703 
L 453.135135 273.780339 
L 454.150696 272.793609 
L 456.181818 272.793609 
L 457.197379 273.286974 
L 459.228501 272.300244 
L 460.244062 272.793609 
L 461.259623 272.793609 
L 462.275184 273.286974 
L 466.337428 273.286974 
L 467.352989 272.793609 
L 470.399672 272.793609 
L 471.415233 273.286974 
L 476.493038 273.286974 
L 478.524161 272.300244 
L 481.570844 272.300244 
L 482.586405 271.313515 
L 486.648649 269.340056 
L 487.66421 269.83342 
L 488.679771 269.340056 
L 489.695332 269.340056 
L 490.710893 268.846691 
L 492.742015 268.846691 
L 493.757576 268.353326 
L 495.788698 268.353326 
L 496.804259 268.846691 
L 497.81982 268.846691 
L 498.835381 268.353326 
L 499.850942 268.846691 
L 503.913186 268.846691 
L 504.928747 268.353326 
L 505.944308 268.353326 
L 506.959869 267.859961 
L 508.990991 267.859961 
L 510.006552 267.366596 
L 511.022113 266.379867 
L 513.053235 265.393137 
L 516.099918 265.393137 
L 517.115479 264.899773 
L 518.13104 264.899773 
L 519.146601 264.406408 
L 525.239967 264.406408 
L 526.255528 263.913043 
L 527.271089 264.406408 
L 528.28665 263.419678 
L 530.317772 263.419678 
L 532.348894 262.432949 
L 535.395577 262.432949 
L 536.411138 261.446219 
L 543.520066 261.446219 
L 544.535627 260.952854 
L 547.58231 260.952854 
L 548.597871 260.45949 
L 550.628993 260.45949 
L 552.660115 259.47276 
L 557.73792 259.47276 
L 559.769042 258.486031 
L 560.784603 258.486031 
L 561.800164 257.992666 
L 562.815725 258.486031 
L 566.877969 258.486031 
L 567.89353 257.992666 
L 568.909091 257.992666 
L 569.924652 257.499301 
L 570.940213 257.992666 
L 572.971335 257.992666 
L 576.018018 256.512571 
L 577.033579 256.512571 
L 579.064701 255.525842 
L 580.080262 255.525842 
L 581.095823 255.032477 
L 582.111384 255.032477 
L 583.126945 254.539112 
L 585.158067 254.539112 
L 587.189189 253.552383 
L 588.20475 253.552383 
L 589.220311 253.059018 
L 590.235872 253.552383 
L 592.266994 252.565653 
L 593.282555 252.565653 
L 594.298116 253.059018 
L 598.36036 253.059018 
L 599.375921 253.552383 
L 600.391482 253.059018 
L 601.407043 253.059018 
L 602.422604 253.552383 
L 603.438165 253.552383 
L 604.453726 253.059018 
L 605.469287 253.059018 
L 606.484848 252.565653 
L 607.50041 252.565653 
L 609.531532 251.578924 
L 610.547093 251.578924 
L 611.562654 251.085559 
L 616.640459 251.085559 
L 618.671581 250.098829 
L 620.702703 250.098829 
L 621.718264 249.1121 
L 622.733825 249.1121 
L 625.780508 247.632006 
L 629.842752 247.632006 
L 631.873874 246.645276 
L 634.920557 246.645276 
L 635.936118 247.138641 
L 636.951679 247.138641 
L 638.982801 246.151911 
L 639.998362 245.165182 
L 641.013923 245.658546 
L 647.107289 245.658546 
L 648.12285 245.165182 
L 649.138411 245.165182 
L 650.153972 244.178452 
L 651.169533 244.178452 
L 652.185094 243.685087 
L 653.200655 243.685087 
L 654.216216 243.191723 
L 656.247338 243.191723 
L 658.27846 242.204993 
L 660.309582 242.204993 
L 662.340704 241.218263 
L 663.356265 241.218263 
L 664.371826 241.711628 
L 665.387387 241.711628 
L 667.418509 240.724899 
L 668.43407 240.724899 
L 669.449631 240.231534 
L 670.465192 240.231534 
L 671.480753 239.738169 
L 672.496314 239.738169 
L 673.511876 240.231534 
L 675.542998 240.231534 
L 678.589681 238.75144 
L 679.605242 238.75144 
L 680.620803 238.258075 
L 681.636364 236.777981 
L 682.651925 236.777981 
L 683.667486 235.791251 
L 685.698608 234.804521 
L 686.714169 235.297886 
L 687.72973 234.804521 
L 688.745291 233.817792 
L 689.760852 233.324427 
L 691.791974 233.324427 
L 692.807535 233.817792 
L 694.838657 232.831062 
L 696.869779 232.831062 
L 697.88534 232.337698 
L 698.900901 233.324427 
L 707.025389 233.324427 
L 709.056511 232.337698 
L 712.103194 232.337698 
L 713.118755 232.831062 
L 722.258804 232.831062 
L 726.321048 230.857603 
L 730.383292 230.857603 
L 731.398853 229.870874 
L 733.429975 230.857603 
L 735.461097 230.857603 
L 736.476658 231.350968 
L 740.538903 229.377509 
L 742.570025 229.377509 
L 743.585586 228.884144 
L 744.601147 227.897415 
L 745.616708 227.897415 
L 746.632269 226.910685 
L 747.64783 227.40405 
L 751.710074 227.40405 
L 752.725635 227.897415 
L 755.772318 227.897415 
L 757.80344 225.923956 
L 762.881245 225.923956 
L 763.896806 226.41732 
L 764.912367 225.923956 
L 765.927928 225.923956 
L 766.943489 225.430591 
L 769.990172 225.430591 
L 771.005733 224.937226 
L 772.021294 224.937226 
L 773.036855 224.443861 
L 778.11466 226.910685 
L 779.130221 226.910685 
L 780.145782 226.41732 
L 782.176904 226.41732 
L 783.192465 226.910685 
L 784.208026 226.910685 
L 786.239148 225.923956 
L 787.254709 225.923956 
L 789.285831 224.937226 
L 790.301392 224.937226 
L 792.332514 225.923956 
L 794.363636 225.923956 
L 795.379197 225.430591 
L 796.394758 225.923956 
L 797.410319 225.923956 
L 798.42588 225.430591 
L 801.472563 225.430591 
L 802.488124 225.923956 
L 804.519247 225.923956 
L 805.534808 225.430591 
L 806.550369 226.41732 
L 807.56593 225.430591 
L 812.643735 225.430591 
L 813.659296 224.937226 
L 817.72154 224.937226 
L 818.737101 222.963767 
L 819.752662 221.483673 
L 820.768223 221.483673 
L 821.783784 221.977037 
L 822.799345 221.483673 
L 824.830467 221.483673 
L 825.846028 220.990308 
L 826.861589 220.003578 
L 827.87715 220.990308 
L 828.892711 220.990308 
L 830.923833 219.016849 
L 833.970516 219.016849 
L 834.986077 218.523484 
L 837.017199 218.523484 
L 838.03276 219.016849 
L 842.095004 219.016849 
L 843.110565 218.030119 
L 846.157248 218.030119 
L 847.172809 218.523484 
L 848.18837 218.030119 
L 850.219492 218.030119 
L 851.235053 217.536754 
L 852.250614 217.536754 
L 853.266175 216.550025 
L 855.297297 216.550025 
L 857.328419 215.563295 
L 858.34398 215.563295 
L 859.359541 215.069931 
L 860.375102 215.069931 
L 861.390663 214.576566 
L 862.406224 215.563295 
L 863.421785 215.069931 
L 864.437346 215.069931 
L 865.452907 214.576566 
L 867.484029 214.576566 
L 869.515152 213.589836 
L 870.530713 213.589836 
L 872.561835 214.576566 
L 874.592957 214.576566 
L 875.608518 214.083201 
L 880.686323 214.083201 
L 881.701884 214.576566 
L 883.733006 214.576566 
L 884.748567 214.083201 
L 885.764128 214.083201 
L 886.779689 214.576566 
L 888.810811 214.576566 
L 889.826372 214.083201 
L 891.857494 214.083201 
L 893.888616 213.096471 
L 903.028665 213.096471 
L 904.044226 213.589836 
L 905.059787 213.096471 
L 906.075348 212.109742 
L 907.090909 212.109742 
L 908.10647 212.603107 
L 911.153153 212.603107 
L 912.168714 213.096471 
L 916.230958 213.096471 
L 917.246519 212.603107 
L 918.26208 212.603107 
L 919.277641 211.123012 
L 920.293202 211.123012 
L 921.308763 211.616377 
L 922.324324 210.629648 
L 923.339885 210.629648 
L 924.355446 210.136283 
L 926.386568 208.162824 
L 927.402129 208.656188 
L 931.464373 208.656188 
L 932.479934 208.162824 
L 934.511057 208.162824 
L 935.526618 208.656188 
L 937.55774 208.656188 
L 938.573301 208.162824 
L 939.588862 208.162824 
L 940.604423 208.656188 
L 942.635545 208.656188 
L 943.651106 208.162824 
L 944.666667 208.656188 
L 947.71335 208.656188 
L 948.728911 208.162824 
L 950.760033 208.162824 
L 951.775594 207.669459 
L 952.791155 207.669459 
L 953.806716 206.682729 
L 954.822277 207.176094 
L 955.837838 207.176094 
L 956.853399 207.669459 
L 964.977887 207.669459 
L 965.993448 207.176094 
L 970.055692 207.176094 
L 971.071253 206.682729 
L 972.086814 206.682729 
L 973.102375 206.189365 
L 976.149058 206.189365 
L 979.195741 204.70927 
L 982.242424 204.70927 
L 983.257985 203.722541 
L 984.273546 203.722541 
L 985.289107 204.215905 
L 987.320229 204.215905 
L 988.33579 203.229176 
L 989.351351 202.735811 
L 995.444717 202.735811 
L 997.475839 203.722541 
L 998.4914 203.722541 
L 999.506962 204.215905 
L 1001.538084 204.215905 
L 1002.553645 204.70927 
L 1012.709255 204.70927 
L 1013.724816 204.215905 
L 1016.771499 204.215905 
L 1018.802621 205.202635 
L 1020.833743 205.202635 
L 1021.849304 206.189365 
L 1022.864865 206.189365 
L 1023.880426 206.682729 
L 1024.895987 205.696 
L 1025.911548 206.189365 
L 1026.927109 206.189365 
L 1027.94267 205.696 
L 1028.958231 205.696 
L 1029.973792 205.202635 
L 1033.020475 205.202635 
L 1034.036036 204.70927 
L 1036.067158 204.70927 
L 1037.082719 203.722541 
L 1038.09828 203.722541 
L 1040.129402 204.70927 
L 1041.144963 204.70927 
L 1043.176085 202.735811 
L 1044.191646 202.735811 
L 1045.207207 202.242446 
L 1046.222768 202.242446 
L 1049.269451 203.722541 
L 1050.285012 203.722541 
L 1051.300573 204.215905 
L 1053.331695 204.215905 
L 1054.347256 204.70927 
L 1062.471744 204.70927 
L 1063.487305 204.215905 
L 1068.565111 204.215905 
L 1069.580672 203.722541 
L 1070.596233 203.722541 
L 1071.611794 204.215905 
L 1072.627355 203.722541 
L 1073.642916 203.722541 
L 1074.658477 204.215905 
L 1076.689599 204.215905 
L 1078.720721 203.229176 
L 1079.736282 203.229176 
L 1080.751843 202.242446 
L 1082.782965 203.229176 
L 1084.814087 203.229176 
L 1085.829648 202.735811 
L 1091.923014 202.735811 
L 1092.938575 203.722541 
L 1094.969697 203.722541 
L 1097.000819 202.735811 
L 1098.01638 202.735811 
L 1099.031941 203.722541 
L 1100.047502 203.722541 
L 1101.063063 203.229176 
L 1102.078624 202.242446 
L 1103.094185 202.242446 
L 1104.109746 202.735811 
L 1105.125307 202.242446 
L 1106.140868 202.735811 
L 1108.17199 202.735811 
L 1109.187551 202.242446 
L 1112.234234 202.242446 
L 1113.249795 203.229176 
L 1114.265356 202.735811 
L 1115.280917 202.735811 
L 1118.3276 201.255717 
L 1119.343161 201.255717 
L 1120.358722 200.268987 
L 1124.420966 200.268987 
L 1125.436527 199.775623 
L 1130.514333 199.775623 
L 1131.529894 198.788893 
L 1132.545455 198.295528 
L 1134.576577 198.295528 
L 1135.592138 197.802163 
L 1137.62326 197.802163 
L 1139.654382 196.815434 
L 1140.669943 196.815434 
L 1141.685504 196.322069 
L 1142.701065 196.322069 
L 1143.716626 195.828704 
L 1145.747748 195.828704 
L 1146.763309 196.322069 
L 1148.794431 195.33534 
L 1152.856675 195.33534 
L 1153.872236 194.841975 
L 1154.887797 194.841975 
L 1155.903358 194.34861 
L 1156.918919 194.34861 
L 1157.93448 193.855245 
L 1158.950041 194.34861 
L 1159.965602 194.34861 
L 1160.981163 194.841975 
L 1169.105651 194.841975 
L 1170.121212 194.34861 
L 1174.183456 194.34861 
L 1175.199017 194.841975 
L 1176.214578 193.855245 
L 1177.230139 193.36188 
L 1180.276822 193.36188 
L 1181.292383 192.868516 
L 1182.307944 193.855245 
L 1186.370188 193.855245 
L 1187.385749 192.375151 
L 1188.40131 192.868516 
L 1189.416871 192.375151 
L 1191.447993 192.375151 
L 1192.463554 192.868516 
L 1193.479115 192.868516 
L 1194.494676 193.36188 
L 1195.510238 192.868516 
L 1196.525799 193.36188 
L 1197.54136 192.868516 
L 1200.588043 192.868516 
L 1201.603604 192.375151 
L 1202.619165 192.868516 
L 1204.650287 192.868516 
L 1205.665848 193.36188 
L 1206.681409 193.36188 
L 1208.712531 192.375151 
L 1209.728092 192.868516 
L 1211.759214 192.868516 
L 1212.774775 192.375151 
L 1214.805897 192.375151 
L 1215.821458 192.868516 
L 1218.868141 192.868516 
L 1219.883702 193.36188 
L 1220.899263 194.34861 
L 1221.914824 193.855245 
L 1222.930385 195.33534 
L 1223.945946 194.841975 
L 1229.023751 194.841975 
L 1230.039312 193.855245 
L 1231.054873 193.855245 
L 1232.070434 194.34861 
L 1235.117117 194.34861 
L 1236.132678 193.855245 
L 1239.179361 193.855245 
L 1241.210483 192.868516 
L 1242.226044 192.868516 
L 1245.272727 194.34861 
L 1245.272727 194.34861 
" style="fill:none;stroke:#c44e52;stroke-linecap:round;stroke-width:1.5;"/>
   </g>
   <g id="patch_3">
    <path d="M 180 504 
L 180 69.12 
" style="fill:none;stroke:#ffffff;stroke-linecap:square;stroke-linejoin:miter;stroke-width:1.25;"/>
   </g>
   <g id="patch_4">
    <path d="M 1296 504 
L 1296 69.12 
" style="fill:none;stroke:#ffffff;stroke-linecap:square;stroke-linejoin:miter;stroke-width:1.25;"/>
   </g>
   <g id="patch_5">
    <path d="M 180 504 
L 1296 504 
" style="fill:none;stroke:#ffffff;stroke-linecap:square;stroke-linejoin:miter;stroke-width:1.25;"/>
   </g>
   <g id="patch_6">
    <path d="M 180 69.12 
L 1296 69.12 
" style="fill:none;stroke:#ffffff;stroke-linecap:square;stroke-linejoin:miter;stroke-width:1.25;"/>
   </g>
   <g id="text_18">
    <!-- Final RF Model Metric Scores vs. Positive Class Decision Probability Threshold -->
    <g style="fill:#262626;" transform="translate(527.710312 63.12)scale(0.12 -0.12)">
     <defs>
      <path d="M 525 0 
L 525 4581 
L 3616 4581 
L 3616 4041 
L 1131 4041 
L 1131 2622 
L 3281 2622 
L 3281 2081 
L 1131 2081 
L 1131 0 
L 525 0 
z
" id="ArialMT-46" transform="scale(0.015625)"/>
      <path d="M 422 0 
L 422 3319 
L 928 3319 
L 928 2847 
Q 1294 3394 1984 3394 
Q 2284 3394 2536 3286 
Q 2788 3178 2913 3003 
Q 3038 2828 3088 2588 
Q 3119 2431 3119 2041 
L 3119 0 
L 2556 0 
L 2556 2019 
Q 2556 2363 2490 2533 
Q 2425 2703 2258 2804 
Q 2091 2906 1866 2906 
Q 1506 2906 1245 2678 
Q 984 2450 984 1813 
L 984 0 
L 422 0 
z
" id="ArialMT-6e" transform="scale(0.015625)"/>
      <path d="M 2588 409 
Q 2275 144 1986 34 
Q 1697 -75 1366 -75 
Q 819 -75 525 192 
Q 231 459 231 875 
Q 231 1119 342 1320 
Q 453 1522 633 1644 
Q 813 1766 1038 1828 
Q 1203 1872 1538 1913 
Q 2219 1994 2541 2106 
Q 2544 2222 2544 2253 
Q 2544 2597 2384 2738 
Q 2169 2928 1744 2928 
Q 1347 2928 1158 2789 
Q 969 2650 878 2297 
L 328 2372 
Q 403 2725 575 2942 
Q 747 3159 1072 3276 
Q 1397 3394 1825 3394 
Q 2250 3394 2515 3294 
Q 2781 3194 2906 3042 
Q 3031 2891 3081 2659 
Q 3109 2516 3109 2141 
L 3109 1391 
Q 3109 606 3145 398 
Q 3181 191 3288 0 
L 2700 0 
Q 2613 175 2588 409 
z
M 2541 1666 
Q 2234 1541 1622 1453 
Q 1275 1403 1131 1340 
Q 988 1278 909 1158 
Q 831 1038 831 891 
Q 831 666 1001 516 
Q 1172 366 1500 366 
Q 1825 366 2078 508 
Q 2331 650 2450 897 
Q 2541 1088 2541 1459 
L 2541 1666 
z
" id="ArialMT-61" transform="scale(0.015625)"/>
      <path d="M 503 0 
L 503 4581 
L 2534 4581 
Q 3147 4581 3465 4457 
Q 3784 4334 3975 4021 
Q 4166 3709 4166 3331 
Q 4166 2844 3850 2509 
Q 3534 2175 2875 2084 
Q 3116 1969 3241 1856 
Q 3506 1613 3744 1247 
L 4541 0 
L 3778 0 
L 3172 953 
Q 2906 1366 2734 1584 
Q 2563 1803 2427 1890 
Q 2291 1978 2150 2013 
Q 2047 2034 1813 2034 
L 1109 2034 
L 1109 0 
L 503 0 
z
M 1109 2559 
L 2413 2559 
Q 2828 2559 3062 2645 
Q 3297 2731 3419 2920 
Q 3541 3109 3541 3331 
Q 3541 3656 3305 3865 
Q 3069 4075 2559 4075 
L 1109 4075 
L 1109 2559 
z
" id="ArialMT-52" transform="scale(0.015625)"/>
      <path d="M 288 1472 
L 859 1522 
Q 900 1178 1048 958 
Q 1197 738 1509 602 
Q 1822 466 2213 466 
Q 2559 466 2825 569 
Q 3091 672 3220 851 
Q 3350 1031 3350 1244 
Q 3350 1459 3225 1620 
Q 3100 1781 2813 1891 
Q 2628 1963 1997 2114 
Q 1366 2266 1113 2400 
Q 784 2572 623 2826 
Q 463 3081 463 3397 
Q 463 3744 659 4045 
Q 856 4347 1234 4503 
Q 1613 4659 2075 4659 
Q 2584 4659 2973 4495 
Q 3363 4331 3572 4012 
Q 3781 3694 3797 3291 
L 3216 3247 
Q 3169 3681 2898 3903 
Q 2628 4125 2100 4125 
Q 1550 4125 1298 3923 
Q 1047 3722 1047 3438 
Q 1047 3191 1225 3031 
Q 1400 2872 2139 2705 
Q 2878 2538 3153 2413 
Q 3553 2228 3743 1945 
Q 3934 1663 3934 1294 
Q 3934 928 3725 604 
Q 3516 281 3123 101 
Q 2731 -78 2241 -78 
Q 1619 -78 1198 103 
Q 778 284 539 648 
Q 300 1013 288 1472 
z
" id="ArialMT-53" transform="scale(0.015625)"/>
      <path d="M 1344 0 
L 81 3319 
L 675 3319 
L 1388 1331 
Q 1503 1009 1600 663 
Q 1675 925 1809 1294 
L 2547 3319 
L 3125 3319 
L 1869 0 
L 1344 0 
z
" id="ArialMT-76" transform="scale(0.015625)"/>
      <path d="M 3763 1606 
L 4369 1453 
Q 4178 706 3683 314 
Q 3188 -78 2472 -78 
Q 1731 -78 1267 223 
Q 803 525 561 1097 
Q 319 1669 319 2325 
Q 319 3041 592 3573 
Q 866 4106 1370 4382 
Q 1875 4659 2481 4659 
Q 3169 4659 3637 4309 
Q 4106 3959 4291 3325 
L 3694 3184 
Q 3534 3684 3231 3912 
Q 2928 4141 2469 4141 
Q 1941 4141 1586 3887 
Q 1231 3634 1087 3207 
Q 944 2781 944 2328 
Q 944 1744 1114 1308 
Q 1284 872 1643 656 
Q 2003 441 2422 441 
Q 2931 441 3284 734 
Q 3638 1028 3763 1606 
z
" id="ArialMT-43" transform="scale(0.015625)"/>
      <path d="M 494 0 
L 494 4581 
L 2072 4581 
Q 2606 4581 2888 4516 
Q 3281 4425 3559 4188 
Q 3922 3881 4101 3404 
Q 4281 2928 4281 2316 
Q 4281 1794 4159 1391 
Q 4038 988 3847 723 
Q 3656 459 3429 307 
Q 3203 156 2883 78 
Q 2563 0 2147 0 
L 494 0 
z
M 1100 541 
L 2078 541 
Q 2531 541 2789 625 
Q 3047 709 3200 863 
Q 3416 1078 3536 1442 
Q 3656 1806 3656 2325 
Q 3656 3044 3420 3430 
Q 3184 3816 2847 3947 
Q 2603 4041 2063 4041 
L 1100 4041 
L 1100 541 
z
" id="ArialMT-44" transform="scale(0.015625)"/>
      <path d="M 941 0 
L 419 0 
L 419 4581 
L 981 4581 
L 981 2947 
Q 1338 3394 1891 3394 
Q 2197 3394 2470 3270 
Q 2744 3147 2920 2923 
Q 3097 2700 3197 2384 
Q 3297 2069 3297 1709 
Q 3297 856 2875 390 
Q 2453 -75 1863 -75 
Q 1275 -75 941 416 
L 941 0 
z
M 934 1684 
Q 934 1088 1097 822 
Q 1363 388 1816 388 
Q 2184 388 2453 708 
Q 2722 1028 2722 1663 
Q 2722 2313 2464 2622 
Q 2206 2931 1841 2931 
Q 1472 2931 1203 2611 
Q 934 2291 934 1684 
z
" id="ArialMT-62" transform="scale(0.015625)"/>
      <path d="M 397 -1278 
L 334 -750 
Q 519 -800 656 -800 
Q 844 -800 956 -737 
Q 1069 -675 1141 -563 
Q 1194 -478 1313 -144 
Q 1328 -97 1363 -6 
L 103 3319 
L 709 3319 
L 1400 1397 
Q 1534 1031 1641 628 
Q 1738 1016 1872 1384 
L 2581 3319 
L 3144 3319 
L 1881 -56 
Q 1678 -603 1566 -809 
Q 1416 -1088 1222 -1217 
Q 1028 -1347 759 -1347 
Q 597 -1347 397 -1278 
z
" id="ArialMT-79" transform="scale(0.015625)"/>
      <path d="M 1659 0 
L 1659 4041 
L 150 4041 
L 150 4581 
L 3781 4581 
L 3781 4041 
L 2266 4041 
L 2266 0 
L 1659 0 
z
" id="ArialMT-54" transform="scale(0.015625)"/>
     </defs>
     <use xlink:href="#ArialMT-46"/>
     <use x="61.083984" xlink:href="#ArialMT-69"/>
     <use x="83.300781" xlink:href="#ArialMT-6e"/>
     <use x="138.916016" xlink:href="#ArialMT-61"/>
     <use x="194.53125" xlink:href="#ArialMT-6c"/>
     <use x="216.748047" xlink:href="#ArialMT-20"/>
     <use x="244.53125" xlink:href="#ArialMT-52"/>
     <use x="316.748047" xlink:href="#ArialMT-46"/>
     <use x="377.832031" xlink:href="#ArialMT-20"/>
     <use x="405.615234" xlink:href="#ArialMT-4d"/>
     <use x="488.916016" xlink:href="#ArialMT-6f"/>
     <use x="544.53125" xlink:href="#ArialMT-64"/>
     <use x="600.146484" xlink:href="#ArialMT-65"/>
     <use x="655.761719" xlink:href="#ArialMT-6c"/>
     <use x="677.978516" xlink:href="#ArialMT-20"/>
     <use x="705.761719" xlink:href="#ArialMT-4d"/>
     <use x="789.0625" xlink:href="#ArialMT-65"/>
     <use x="844.677734" xlink:href="#ArialMT-74"/>
     <use x="872.460938" xlink:href="#ArialMT-72"/>
     <use x="905.761719" xlink:href="#ArialMT-69"/>
     <use x="927.978516" xlink:href="#ArialMT-63"/>
     <use x="977.978516" xlink:href="#ArialMT-20"/>
     <use x="1005.761719" xlink:href="#ArialMT-53"/>
     <use x="1072.460938" xlink:href="#ArialMT-63"/>
     <use x="1122.460938" xlink:href="#ArialMT-6f"/>
     <use x="1178.076172" xlink:href="#ArialMT-72"/>
     <use x="1211.376953" xlink:href="#ArialMT-65"/>
     <use x="1266.992188" xlink:href="#ArialMT-73"/>
     <use x="1316.992188" xlink:href="#ArialMT-20"/>
     <use x="1344.775391" xlink:href="#ArialMT-76"/>
     <use x="1394.775391" xlink:href="#ArialMT-73"/>
     <use x="1444.775391" xlink:href="#ArialMT-2e"/>
     <use x="1472.558594" xlink:href="#ArialMT-20"/>
     <use x="1500.341797" xlink:href="#ArialMT-50"/>
     <use x="1567.041016" xlink:href="#ArialMT-6f"/>
     <use x="1622.65625" xlink:href="#ArialMT-73"/>
     <use x="1672.65625" xlink:href="#ArialMT-69"/>
     <use x="1694.873047" xlink:href="#ArialMT-74"/>
     <use x="1722.65625" xlink:href="#ArialMT-69"/>
     <use x="1744.873047" xlink:href="#ArialMT-76"/>
     <use x="1794.873047" xlink:href="#ArialMT-65"/>
     <use x="1850.488281" xlink:href="#ArialMT-20"/>
     <use x="1878.271484" xlink:href="#ArialMT-43"/>
     <use x="1950.488281" xlink:href="#ArialMT-6c"/>
     <use x="1972.705078" xlink:href="#ArialMT-61"/>
     <use x="2028.320312" xlink:href="#ArialMT-73"/>
     <use x="2078.320312" xlink:href="#ArialMT-73"/>
     <use x="2128.320312" xlink:href="#ArialMT-20"/>
     <use x="2156.103516" xlink:href="#ArialMT-44"/>
     <use x="2228.320312" xlink:href="#ArialMT-65"/>
     <use x="2283.935547" xlink:href="#ArialMT-63"/>
     <use x="2333.935547" xlink:href="#ArialMT-69"/>
     <use x="2356.152344" xlink:href="#ArialMT-73"/>
     <use x="2406.152344" xlink:href="#ArialMT-69"/>
     <use x="2428.369141" xlink:href="#ArialMT-6f"/>
     <use x="2483.984375" xlink:href="#ArialMT-6e"/>
     <use x="2539.599609" xlink:href="#ArialMT-20"/>
     <use x="2567.382812" xlink:href="#ArialMT-50"/>
     <use x="2634.082031" xlink:href="#ArialMT-72"/>
     <use x="2667.382812" xlink:href="#ArialMT-6f"/>
     <use x="2722.998047" xlink:href="#ArialMT-62"/>
     <use x="2778.613281" xlink:href="#ArialMT-61"/>
     <use x="2834.228516" xlink:href="#ArialMT-62"/>
     <use x="2889.84375" xlink:href="#ArialMT-69"/>
     <use x="2912.060547" xlink:href="#ArialMT-6c"/>
     <use x="2934.277344" xlink:href="#ArialMT-69"/>
     <use x="2956.494141" xlink:href="#ArialMT-74"/>
     <use x="2984.277344" xlink:href="#ArialMT-79"/>
     <use x="3034.277344" xlink:href="#ArialMT-20"/>
     <use x="3060.310547" xlink:href="#ArialMT-54"/>
     <use x="3121.394531" xlink:href="#ArialMT-68"/>
     <use x="3177.009766" xlink:href="#ArialMT-72"/>
     <use x="3210.310547" xlink:href="#ArialMT-65"/>
     <use x="3265.925781" xlink:href="#ArialMT-73"/>
     <use x="3315.925781" xlink:href="#ArialMT-68"/>
     <use x="3371.541016" xlink:href="#ArialMT-6f"/>
     <use x="3427.15625" xlink:href="#ArialMT-6c"/>
     <use x="3449.373047" xlink:href="#ArialMT-64"/>
    </g>
   </g>
   <g id="legend_1">
    <g id="patch_7">
     <path d="M 1311.580391 101.954141 
L 1392.019609 101.954141 
Q 1394.219609 101.954141 1394.219609 99.754141 
L 1394.219609 38.485859 
Q 1394.219609 36.285859 1392.019609 36.285859 
L 1311.580391 36.285859 
Q 1309.380391 36.285859 1309.380391 38.485859 
L 1309.380391 99.754141 
Q 1309.380391 101.954141 1311.580391 101.954141 
z
" style="fill:#eaeaf2;opacity:0.8;stroke:#cccccc;stroke-linejoin:miter;"/>
    </g>
    <g id="line2d_20">
     <path d="M 1313.780391 44.709453 
L 1335.780391 44.709453 
" style="fill:none;stroke:#4c72b0;stroke-linecap:round;stroke-width:1.5;"/>
    </g>
    <g id="line2d_21"/>
    <g id="text_19">
     <!-- F2 -->
     <g style="fill:#262626;" transform="translate(1344.580391 48.559453)scale(0.11 -0.11)">
      <use xlink:href="#ArialMT-46"/>
      <use x="61.083984" xlink:href="#ArialMT-32"/>
     </g>
    </g>
    <g id="line2d_22">
     <path d="M 1313.780391 60.269297 
L 1335.780391 60.269297 
" style="fill:none;stroke:#dd8452;stroke-linecap:round;stroke-width:1.5;"/>
    </g>
    <g id="line2d_23"/>
    <g id="text_20">
     <!-- Precision -->
     <g style="fill:#262626;" transform="translate(1344.580391 64.119297)scale(0.11 -0.11)">
      <use xlink:href="#ArialMT-50"/>
      <use x="66.699219" xlink:href="#ArialMT-72"/>
      <use x="100" xlink:href="#ArialMT-65"/>
      <use x="155.615234" xlink:href="#ArialMT-63"/>
      <use x="205.615234" xlink:href="#ArialMT-69"/>
      <use x="227.832031" xlink:href="#ArialMT-73"/>
      <use x="277.832031" xlink:href="#ArialMT-69"/>
      <use x="300.048828" xlink:href="#ArialMT-6f"/>
      <use x="355.664062" xlink:href="#ArialMT-6e"/>
     </g>
    </g>
    <g id="line2d_24">
     <path d="M 1313.780391 75.829141 
L 1335.780391 75.829141 
" style="fill:none;stroke:#55a868;stroke-linecap:round;stroke-width:1.5;"/>
    </g>
    <g id="line2d_25"/>
    <g id="text_21">
     <!-- Recall -->
     <g style="fill:#262626;" transform="translate(1344.580391 79.679141)scale(0.11 -0.11)">
      <use xlink:href="#ArialMT-52"/>
      <use x="72.216797" xlink:href="#ArialMT-65"/>
      <use x="127.832031" xlink:href="#ArialMT-63"/>
      <use x="177.832031" xlink:href="#ArialMT-61"/>
      <use x="233.447266" xlink:href="#ArialMT-6c"/>
      <use x="255.664062" xlink:href="#ArialMT-6c"/>
     </g>
    </g>
    <g id="line2d_26">
     <path d="M 1313.780391 91.388984 
L 1335.780391 91.388984 
" style="fill:none;stroke:#c44e52;stroke-linecap:round;stroke-width:1.5;"/>
    </g>
    <g id="line2d_27"/>
    <g id="text_22">
     <!-- Accuracy -->
     <g style="fill:#262626;" transform="translate(1344.580391 95.238984)scale(0.11 -0.11)">
      <defs>
       <path d="M -9 0 
L 1750 4581 
L 2403 4581 
L 4278 0 
L 3588 0 
L 3053 1388 
L 1138 1388 
L 634 0 
L -9 0 
z
M 1313 1881 
L 2866 1881 
L 2388 3150 
Q 2169 3728 2063 4100 
Q 1975 3659 1816 3225 
L 1313 1881 
z
" id="ArialMT-41" transform="scale(0.015625)"/>
       <path d="M 2597 0 
L 2597 488 
Q 2209 -75 1544 -75 
Q 1250 -75 995 37 
Q 741 150 617 320 
Q 494 491 444 738 
Q 409 903 409 1263 
L 409 3319 
L 972 3319 
L 972 1478 
Q 972 1038 1006 884 
Q 1059 663 1231 536 
Q 1403 409 1656 409 
Q 1909 409 2131 539 
Q 2353 669 2445 892 
Q 2538 1116 2538 1541 
L 2538 3319 
L 3100 3319 
L 3100 0 
L 2597 0 
z
" id="ArialMT-75" transform="scale(0.015625)"/>
      </defs>
      <use xlink:href="#ArialMT-41"/>
      <use x="66.699219" xlink:href="#ArialMT-63"/>
      <use x="116.699219" xlink:href="#ArialMT-63"/>
      <use x="166.699219" xlink:href="#ArialMT-75"/>
      <use x="222.314453" xlink:href="#ArialMT-72"/>
      <use x="255.615234" xlink:href="#ArialMT-61"/>
      <use x="311.230469" xlink:href="#ArialMT-63"/>
      <use x="361.230469" xlink:href="#ArialMT-79"/>
     </g>
    </g>
   </g>
  </g>
 </g>
 <defs>
  <clipPath id="pf8fd24a01c">
   <rect height="434.88" width="1116" x="180" y="69.12"/>
  </clipPath>
 </defs>
</svg>
